<?xml version="1.0" encoding="UTF-8" standalone="no"?>
<!-- Created with Inkscape (http://www.inkscape.org/) -->

<svg
   width="92.731674mm"
   height="128.17346mm"
   viewBox="0 0 92.731675 128.17346"
   version="1.1"
   id="svg1"
   xml:space="preserve"
   inkscape:version="1.3.2 (091e20e, 2023-11-25, custom)"
   sodipodi:docname="Login-Background.svg"
   xmlns:inkscape="http://www.inkscape.org/namespaces/inkscape"
   xmlns:sodipodi="http://sodipodi.sourceforge.net/DTD/sodipodi-0.dtd"
   xmlns="http://www.w3.org/2000/svg"
   xmlns:svg="http://www.w3.org/2000/svg"><sodipodi:namedview
     id="namedview1"
     pagecolor="#ffffff"
     bordercolor="#000000"
     borderopacity="0.25"
     inkscape:showpageshadow="2"
     inkscape:pageopacity="0.0"
     inkscape:pagecheckerboard="0"
     inkscape:deskcolor="#d1d1d1"
     inkscape:document-units="mm"
     inkscape:zoom="0.70710678"
     inkscape:cx="373.35238"
     inkscape:cy="310.41988"
     inkscape:window-width="1366"
     inkscape:window-height="705"
     inkscape:window-x="-8"
     inkscape:window-y="-8"
     inkscape:window-maximized="1"
     inkscape:current-layer="layer1"><inkscape:page
       x="0"
       y="0"
       width="92.731682"
       height="128.17346"
       id="page1"
       margin="0"
       bleed="0"
       inkscape:export-filename="Login-Background.png"
       inkscape:export-xdpi="96"
       inkscape:export-ydpi="96" /></sodipodi:namedview><defs
     id="defs1" /><g
     inkscape:label="Layer 1"
     inkscape:groupmode="layer"
     id="layer1"
     transform="translate(-24.620849,-12.704116)"><path
       style="fill:#000000"
       d="m 41.012242,139.67186 c 0.695806,-0.79048 1.272005,-1.79107 1.510901,-2.62375 0.796231,-2.77527 1.215438,-9.28557 0.635269,-9.86574 -0.211901,-0.2119 -0.132782,-0.3415 0.290489,-0.47584 0.788469,-0.25025 3.066939,0.61127 2.669018,1.00919 -0.665617,0.66561 0.04164,3.01109 1.474398,4.88953 l 0.676487,0.88692 0.658299,-0.61481 c 0.763051,-0.71264 1.794276,-2.393 2.22259,-3.62167 0.246398,-0.70681 0.223055,-0.93611 -0.13565,-1.33248 -0.409015,-0.45196 -0.369483,-0.50311 0.706361,-0.91398 1.238234,-0.47288 2.577141,-0.57624 2.577141,-0.19895 0,0.12996 -0.178594,0.30481 -0.396875,0.38857 -0.506,0.19418 -0.506654,1.35466 -0.0034,5.98974 0.484561,4.46269 0.762866,5.44262 1.856271,6.53602 l 0.872311,0.87231 h -2.648686 c -2.610239,0 -2.639988,-0.007 -2.049419,-0.48525 l 0.599268,-0.48526 -0.332146,-3.41735 c -0.182681,-1.87954 -0.413252,-3.76021 -0.512381,-4.17926 l -0.180235,-0.76192 -0.766683,1.0265 c -0.421676,0.56458 -1.146693,1.45643 -1.611149,1.9819 l -0.844465,0.9554 -1.093576,-1.40021 c -0.601467,-0.77012 -1.165254,-1.587 -1.252859,-1.81529 -0.334831,-0.87256 -0.546288,-0.32497 -0.886967,2.29689 -0.668299,5.14322 -0.668009,5.19395 0.03122,5.45936 0.584782,0.22196 0.567077,0.24436 -0.305254,0.38613 -0.509322,0.0828 -1.521354,0.22382 -2.248958,0.31342 -0.727604,0.0896 -1.618378,0.23373 -1.979499,0.32028 -0.597518,0.14321 -0.555404,0.0424 0.468154,-1.1204 z m 19.443493,0.93275 c -1.364203,-0.32412 -2.200192,-1.02306 -2.773292,-2.31865 -1.266209,-2.86247 0.387183,-5.79736 3.430743,-6.08981 1.589299,-0.15271 2.787938,0.39444 3.382393,1.54399 0.871222,1.68476 0.283321,2.2136 -3.649597,3.28292 -1.654733,0.44991 -1.818367,0.74366 -0.996372,1.78866 0.658106,0.83664 1.712978,1.115 2.690695,0.71002 0.759358,-0.31453 1.03483,-1.16805 0.440888,-1.36603 -0.53535,-0.17845 -0.0033,-0.99837 0.647839,-0.99837 0.788579,0 1.251846,0.46663 1.251846,1.26094 0,0.99954 -0.437254,1.55524 -1.585136,2.01454 -1.154496,0.46193 -1.524597,0.48432 -2.840007,0.17179 z m 1.117851,-4.98678 c 1.257044,-0.37533 1.60525,-0.59603 1.67277,-1.06025 0.06599,-0.45371 -0.118999,-0.67161 -0.818206,-0.96376 -1.417632,-0.59232 -2.865944,0.005 -3.400363,1.40291 -0.466652,1.22046 0.08646,1.3554 2.545799,0.6211 z m 14.684374,4.89801 c -1.334699,-0.45515 -2.041222,-1.94844 -1.607225,-3.397 0.431027,-1.43864 1.581409,-2.14401 3.260871,-1.99944 1.059845,0.0912 1.256771,0.0359 1.256771,-0.35284 0,-0.25356 -0.218085,-0.73034 -0.484634,-1.05951 -0.633648,-0.78252 -2.751896,-0.91964 -2.900035,-0.18773 -0.05154,0.25466 0.03408,0.46302 0.190269,0.46302 0.156191,0 0.283983,-0.18851 0.283983,-0.41892 0,-0.61848 0.647426,-0.29641 0.745671,0.37094 0.113502,0.77098 -0.961204,1.29278 -1.770536,0.85964 -0.785172,-0.42021 -0.720131,-1.44312 0.134505,-2.11537 1.434478,-1.12836 4.09019,-0.43904 4.986543,1.29431 0.229739,0.44427 0.577341,1.8817 0.77245,3.19429 0.210528,1.41632 0.532733,2.5832 0.792565,2.87031 0.419085,0.46309 0.37559,0.48379 -1.016443,0.48379 -0.799845,0 -1.393807,-0.0978 -1.319916,-0.21738 0.07389,-0.11956 -0.282957,-0.043 -0.792997,0.17009 -1.090986,0.45584 -1.307246,0.45941 -2.531842,0.0418 z m 2.759226,-1.39302 c 0.632386,-0.63239 0.534477,-2.11691 -0.172264,-2.61193 -1.239342,-0.86807 -2.917691,-0.11572 -2.917691,1.30791 0,1.41887 2.092172,2.3018 3.089955,1.30402 z m -12.284225,1.18822 c 0,-0.10267 0.178594,-0.2552 0.396875,-0.33896 0.319869,-0.12275 0.396875,-0.72343 0.396875,-3.09579 0,-2.72097 -0.04,-2.95395 -0.529167,-3.08187 -0.650261,-0.17005 -0.651605,-0.29887 -0.0118,-1.13159 l 0.505598,-0.65804 0.676372,0.63541 c 0.641402,0.60257 0.702178,0.61207 1.175495,0.18372 0.780504,-0.70634 2.324997,-0.85879 2.95199,-0.29137 0.587188,0.5314 0.684941,1.44678 0.205681,1.92604 -0.439873,0.43987 -1.403511,0.39736 -1.799166,-0.0794 -0.270886,-0.3264 -0.249231,-0.39688 0.121943,-0.39688 0.248226,0 0.404192,-0.14139 0.34659,-0.31419 -0.193338,-0.58001 -0.713041,-0.52369 -1.387058,0.15033 -0.616969,0.61697 -0.668975,0.85503 -0.668975,3.06225 0,2.0405 0.078,2.47128 0.529166,2.92244 0.291042,0.29105 0.529167,0.56638 0.529167,0.61185 0,0.0455 -0.773906,0.0827 -1.719791,0.0827 -0.945886,0 -1.719792,-0.084 -1.719792,-0.18666 z m 17.416378,-0.32648 c 0.541743,-0.57666 0.575288,-0.86207 0.575288,-4.89479 0,-3.63022 -0.06044,-4.28243 -0.396875,-4.28243 -0.613031,0 -0.47615,-0.38829 0.46302,-1.31343 1.691669,-1.66642 1.683857,-1.67704 1.56529,2.12842 -0.05858,1.88009 -0.0031,3.4179 0.123217,3.41735 0.37143,-0.002 2.053111,-1.06657 2.412535,-1.52781 0.506319,-0.64975 0.397345,-0.87925 -0.330729,-0.69651 -0.665658,0.16707 -0.800915,-0.0257 -0.666362,-0.94969 0.142575,-0.97908 1.661008,-1.07423 2.271601,-0.14235 0.657371,1.00328 0.0975,2.38985 -1.321757,3.27347 l -1.111618,0.69208 0.810943,0.42866 c 0.588484,0.31107 0.931107,0.78416 1.248985,1.7246 0.283699,0.83932 0.589785,1.29659 0.868701,1.29777 0.522512,0.002 0.943878,0.61566 0.757137,1.1023 -0.195513,0.5095 -1.51465,0.43732 -1.979298,-0.1083 -0.216868,-0.25466 -0.548421,-0.85238 -0.736784,-1.32827 -0.332229,-0.83936 -1.651129,-2.17746 -2.146223,-2.17746 -0.134356,0 -0.244283,0.69986 -0.244283,1.55523 0,1.3134 0.09257,1.6198 0.595312,1.9705 0.564597,0.39384 0.49396,0.41598 -1.369037,0.42915 l -1.96435,0.0139 z m 9.153046,0.10662 c 0.689281,-0.76164 0.935427,-5.39099 0.322647,-6.06811 -0.408188,-0.45104 -0.406339,-0.51165 0.02714,-0.88983 0.432565,-0.37738 1.501829,-1.00298 1.714276,-1.00298 0.0513,0 0.04471,1.5586 -0.01464,3.46355 -0.100386,3.22193 -0.06821,3.51727 0.461205,4.23334 l 0.56912,0.76977 h -1.76872 c -1.724653,0 -1.757316,-0.0126 -1.31103,-0.50574 z m 0.822037,-9.71142 c -0.491521,-0.49153 -0.429871,-0.87017 0.207098,-1.27195 0.472135,-0.29782 1.250274,0.007 1.435524,0.56324 0.101825,0.30548 -0.620751,1.13629 -0.988251,1.13629 -0.124732,0 -0.419199,-0.19241 -0.654371,-0.42758 z m -47.678599,-7.40343 c -0.08921,-0.23248 -0.05861,-1.57193 0.06799,-2.97657 0.126601,-1.40463 0.231537,-3.86356 0.23319,-5.46429 0.0026,-2.47989 -0.08171,-3.06965 -0.569688,-3.9868 -0.780357,-1.46668 -2.383063,-2.85512 -3.943814,-3.41657 -3.736532,-1.34413 -5.238669,-2.53375 -6.625418,-5.24702 -1.251576,-2.448788 -1.277888,-2.816592 -0.104587,-1.46194 1.395486,1.61118 2.828117,2.27752 5.272303,2.45224 1.136611,0.0812 2.229507,0.3188 2.608211,0.56694 0.381259,0.24981 1.141081,1.4599 1.83045,2.91518 1.472203,3.10785 2.138144,3.90254 4.100275,4.89302 2.305642,1.16389 2.669922,1.88765 2.452358,4.87245 -0.169211,2.32143 -0.202928,2.41712 -1.342257,3.8094 -1.145209,1.39946 -3.322123,3.46664 -3.65067,3.46664 -0.09138,0 -0.23913,-0.19021 -0.328339,-0.42268 z m 3.271448,-0.96638 c 2.924186,-2.9982 4.354086,-5.83625 5.365554,-10.64948 0.275222,-1.30969 0.508781,-2.20283 0.51902,-1.98475 0.01024,0.21807 0.847532,1.17446 1.860652,2.12529 l 1.842035,1.7288 -0.360481,1.57887 c -0.957397,4.19329 -0.711353,5.87544 0.965985,6.6042 0.47839,0.20786 0.793119,0.38258 0.699397,0.38827 -1.763419,0.10717 -6.311486,0.683 -8.540974,1.08137 -1.589799,0.28407 -3.074013,0.51649 -3.298253,0.51649 -0.246961,0 0.126439,-0.54767 0.947065,-1.38906 z m 40.828189,0.88971 c -0.363802,-0.26252 -1.18082,-0.81878 -1.815595,-1.23614 -0.634775,-0.41736 -1.42545,-1.12035 -1.757055,-1.56219 l -0.602919,-0.80336 0.579467,-2.79504 c 0.761218,-3.67171 1.205889,-4.39836 3.3441,-5.46468 2.189167,-1.09174 2.762374,-1.77731 3.443623,-4.11868 1.153396,-3.96407 1.47773,-4.33695 4.09466,-4.70756 0.987593,-0.13986 2.214059,-0.51289 2.725469,-0.82897 0.58542,-0.3618 0.84643,-0.43345 0.70464,-0.19342 -0.66963,1.13361 -2.377887,3.51437 -3.690789,5.14376 -2.795106,3.4689 -3.640956,5.81064 -4.25283,11.77396 -0.499618,4.86927 -1.137725,5.97214 -2.772771,4.79232 z m -4.894792,-0.025 c -1.164166,-0.0947 -3.481857,-0.1155 -5.150424,-0.0463 l -3.033759,0.12576 1.020472,-0.89598 1.020471,-0.89599 -0.177361,-3.53409 -0.177361,-3.5341 1.436446,-1.55153 c 0.806501,-0.87112 1.606922,-2.05065 1.825178,-2.68966 l 0.388732,-1.13813 0.190363,1.32292 c 0.40618,2.82271 1.478385,7.12196 2.133284,8.55388 0.751027,1.6421 1.564012,2.6206 3.143344,3.78332 l 1.031885,0.75967 -0.767301,-0.0438 c -0.422016,-0.0241 -1.719802,-0.12126 -2.883969,-0.21591 z M 75.218477,118.9845 c -0.03235,-2.35413 1.031485,-6.47046 2.330105,-9.01597 0.309171,-0.60602 1.104786,-1.7681 1.768034,-2.58239 1.826091,-2.24195 2.684186,-3.72158 3.036752,-5.23636 0.459571,-1.97451 1.254441,-3.269004 2.316877,-3.773163 0.504505,-0.239403 1.94352,-0.608928 3.197811,-0.821165 1.254291,-0.212238 2.697247,-0.597002 3.20657,-0.855032 1.18955,-0.602642 2.402925,-2.550384 2.582766,-4.145924 0.188087,-1.668708 0.574412,-0.956171 0.774303,1.428126 0.198072,2.362606 -0.397908,4.499419 -1.517749,5.441704 -1.271503,1.069904 -2.475067,1.275844 -4.826687,0.825904 -4.188884,-0.801465 -5.334523,0.33059 -5.732771,5.66481 -0.114958,1.53976 -0.403651,3.26308 -0.64154,3.82959 -0.23789,0.56652 -1.252371,1.89312 -2.254403,2.948 -2.144394,2.25749 -3.125527,3.83638 -3.759035,6.04923 l -0.462184,1.61441 z M 62.98265,118.39949 c -0.340649,-2.22039 -1.716149,-4.39818 -4.227755,-6.69369 -2.684159,-2.45322 -3.020083,-3.13977 -3.250919,-6.64413 -0.331313,-5.02973 -1.882123,-6.417159 -6.247268,-5.589105 -2.365986,0.44882 -3.848849,0.277833 -5.185425,-0.597925 -1.534957,-1.005743 -2.27009,-4.012046 -1.671648,-6.836159 l 0.334829,-1.580096 0.325468,1.414691 c 0.401663,1.745883 1.544939,3.412049 2.770947,4.038267 0.509323,0.260152 2.074402,0.655904 3.477955,0.879449 1.403552,0.223545 2.891834,0.534887 3.307291,0.691872 1.32596,0.501026 2.189494,1.579095 2.736742,3.416656 0.607124,2.0386 1.489155,3.47683 3.575973,5.83094 2.556552,2.884 4.486183,7.93655 4.31219,11.29103 l -0.07994,1.54126 z m 3.104703,-1.59755 c -0.254671,-0.28141 -0.625086,-0.96602 -0.823144,-1.52135 -0.749966,-2.10284 -0.338266,-3.93955 1.473226,-6.57246 l 0.824935,-1.199 -1.2496,-1.38162 c -0.68728,-0.7599 -2.008729,-2.55116 -2.936552,-3.98059 -0.927823,-1.42944 -1.828981,-2.551628 -2.002574,-2.493764 -0.409555,0.136519 -0.651912,1.341004 -0.879743,4.372234 -0.101466,1.34998 -0.277016,2.5117 -0.390111,2.58159 -0.28063,0.17344 -2.546915,-2.42282 -3.184677,-3.64837 -0.484268,-0.93059 -0.505769,-1.35797 -0.339426,-6.746873 l 0.177592,-5.753352 -0.69187,-0.82145 -0.69187,-0.82145 0.665077,-0.303029 c 1.289056,-0.587333 3.688799,-0.144567 6.169663,1.138338 l 0.853149,0.44118 -0.677775,0.533138 c -0.796149,0.626251 -0.841435,1.23847 -0.258839,3.499248 1.08664,4.216739 5.281785,11.54757 6.608218,11.54757 0.799971,0 4.452837,-4.6991 5.904254,-7.59531 0.886605,-1.769167 2.149841,-5.3167 2.149841,-6.037378 0,-0.24338 -0.353935,-0.773134 -0.786523,-1.177231 l -0.786523,-0.734723 1.547963,-0.694685 c 2.484924,-1.115167 3.719963,-1.48776 4.9315,-1.48776 1.925962,0 2.113085,0.220439 0.920474,1.084362 -0.579198,0.419569 -1.124476,1.047288 -1.211729,1.394931 -0.08725,0.347644 0.0206,2.781533 0.239666,5.408643 0.506924,6.079111 0.328868,6.965451 -2.018787,10.049291 -0.586506,0.77042 -1.150967,1.30621 -1.254357,1.19063 -0.10339,-0.11558 -0.321324,-1.71417 -0.484297,-3.55241 -0.162974,-1.83824 -0.372476,-3.540726 -0.46556,-3.783299 -0.312531,-0.814443 -1.018179,-0.294269 -2.748493,2.026069 -0.945886,1.26843 -2.404401,2.9977 -3.241146,3.84282 -0.836745,0.84513 -1.521354,1.61205 -1.521354,1.70427 0,0.0922 0.420521,0.80314 0.934492,1.57983 1.748385,2.64206 2.05201,4.9535 0.931127,7.08847 l -0.479764,0.91381 0.128872,-1.83985 c 0.121752,-1.73822 0.07251,-1.94816 -0.891366,-3.80033 -1.559835,-2.99736 -2.155632,-3.10881 -3.662967,-0.68523 -0.647071,1.0404 -0.808314,1.62111 -0.887938,3.19788 -0.06885,1.36345 0.02099,2.16373 0.307348,2.73775 0.471409,0.94496 0.434145,1.00064 -0.200412,0.29946 z m 18.008142,-5.43895 c -0.06897,-0.29243 -0.208458,-1.2242 -0.309979,-2.0706 -0.169313,-1.41161 -0.129372,-1.59765 0.482832,-2.24896 1.091823,-1.16156 2.302181,-3.26168 2.734654,-4.74494 0.299687,-1.02785 0.53203,-1.38906 0.893474,-1.38906 0.36904,0 0.553455,0.30727 0.754268,1.25677 0.885354,4.18618 0.744119,4.66965 -2.207037,7.55513 -1.888145,1.84613 -2.241696,2.0933 -2.348212,1.64166 z m -31.390957,-2.3133 c -0.797336,-0.73756 -1.893125,-1.7522 -2.435088,-2.25476 -1.2239,-1.13491 -1.436788,-2.13548 -0.998955,-4.69508 0.270097,-1.579 0.432624,-1.96641 0.873287,-2.08165 0.701893,-0.183544 0.978763,0.003 0.978763,0.65891 0,0.87251 1.301161,3.25924 2.563545,4.70234 l 1.182622,1.35191 -0.184509,1.72292 c -0.10148,0.94761 -0.262236,1.77096 -0.357236,1.82967 -0.095,0.0587 -0.825093,-0.4967 -1.622429,-1.23426 z m 14.846368,-5.64648 c -1.497518,-2.07818 -4.093363,-7.471512 -4.667443,-9.697435 -0.516338,-2.002039 -0.350247,-2.492771 0.892298,-2.636372 0.504569,-0.05831 0.708242,-0.234027 0.708242,-0.611018 0,-0.401775 -0.573264,-0.815799 -2.38125,-1.719792 -2.199036,-1.099518 -2.535974,-1.190625 -4.403243,-1.190625 -1.596281,0 -2.136104,0.103127 -2.563985,0.489818 -0.528015,0.477185 -0.585045,0.475673 -2.21134,-0.05864 -0.918142,-0.301653 -3.097007,-0.801109 -4.841923,-1.109903 -3.804637,-0.673298 -5.016002,-1.056038 -7.278466,-2.299687 -2.054583,-1.12938 -5.257559,-4.255552 -6.842961,-6.678876 -1.71291,-2.618221 -3.316526,-6.116552 -4.611534,-10.060181 -0.644025,-1.961223 -1.242544,-3.865454 -1.330042,-4.231624 -0.116087,-0.485817 0.749881,0.230949 3.203871,2.651859 3.557139,3.509187 6.0429,5.33091 10.506707,7.699982 1.455209,0.772321 3.788877,2.144046 5.185931,3.048277 2.759281,1.785922 3.476126,2.060123 3.615807,1.38309 0.10703,-0.518771 -1.455256,-1.812598 -9.860071,-8.165745 -7.606332,-5.749578 -8.787317,-6.767415 -10.870997,-9.369209 -1.979553,-2.471774 -3.29035,-4.875017 -4.052756,-7.430406 -0.519244,-1.740374 -1.098216,-6.638335 -1.063368,-8.995833 0.01458,-0.98618 0.03446,-1.013237 0.29169,-0.396875 1.870193,4.481343 3.648936,7.022222 6.366169,9.093873 1.596117,1.216899 1.897699,0.883367 1.709436,-1.890539 -0.186806,-2.752444 -1.024432,-6.022169 -2.551953,-9.961714 -1.506659,-3.885742 -1.956009,-6.106293 -1.770847,-8.750994 0.08151,-1.164167 0.311914,-2.652448 0.512016,-3.307292 l 0.363823,-1.190625 0.324657,1.5875 c 0.494763,2.419279 1.07794,4.369407 1.659189,5.548287 0.855921,1.735962 3.226669,5.167338 3.57013,5.167338 0.441056,0 0.539819,-0.43113 1.030379,-4.497917 0.277915,-2.303945 0.764516,-4.651963 1.3708,-6.614583 1.697527,-5.495114 1.703136,-5.524572 1.561577,-8.202083 -0.07309,-1.382448 -0.330392,-3.445502 -0.571783,-4.584564 -0.241392,-1.139063 -0.380843,-2.129073 -0.309893,-2.200024 0.07095,-0.07095 0.611264,0.544473 1.200698,1.367608 1.776282,2.480549 2.706631,6.113596 2.755441,10.760102 0.03966,3.775452 0.248355,3.666397 3.496052,-1.826888 2.230966,-3.773544 3.906172,-5.845229 5.924777,-7.327021 1.573972,-1.155401 4.001956,-2.376368 5.59122,-2.811671 1.143257,-0.31314 4.497917,-0.763488 4.497917,-0.603825 0,0.04247 -1.101328,0.627915 -2.447396,1.300983 -2.998784,1.499468 -5.441926,3.20485 -6.490418,4.530496 -3.875332,4.89972 -6.325135,13.629251 -5.607568,19.981782 0.265526,2.350671 1.055709,6.651623 1.604128,8.73125 0.351972,1.33469 0.890833,1.255912 1.651834,-0.241488 l 0.626972,-1.233676 0.0488,1.828988 c 0.10916,4.091347 1.119354,5.914734 6.144168,11.090146 4.113482,4.236767 4.64803,4.986251 4.907747,6.881089 0.09064,0.661324 0.286386,1.277547 0.434981,1.369384 0.41739,0.257961 1.965076,-1.598581 2.280943,-2.736127 0.558024,-2.009633 0.109686,-3.972987 -0.887241,-3.885393 -0.4192,0.03683 -0.459905,-0.106063 -0.320315,-1.124479 0.191786,-1.399234 -0.263839,-1.574212 -1.143293,-0.43907 l -0.563713,0.727604 0.177059,-0.926041 c 0.09738,-0.509323 0.4103,-1.386692 0.695373,-1.949709 0.71714,-1.416345 0.253196,-1.882926 -0.835317,-0.840065 l -0.78508,0.752155 0.277273,-1.031712 c 0.746505,-2.77768 3.541419,-5.667993 7.089063,-7.331033 2.112538,-0.9903 2.245994,-1.01943 2.579687,-0.563078 0.193544,0.264687 0.351898,0.853287 0.351898,1.308 0,0.688972 -0.176314,0.925845 -1.057978,1.421368 -0.920531,0.517367 -1.587856,1.246275 -1.587856,1.734388 0,0.298305 0.565949,0.138831 1.267485,-0.357154 0.39429,-0.278762 0.976356,-0.581768 1.293482,-0.673346 0.482702,-0.139393 0.591846,-0.04609 0.670275,0.572986 0.05373,0.424155 -0.155526,1.19079 -0.490737,1.797825 -0.905698,1.640138 -0.989778,2.681515 -0.37384,4.630208 0.639411,2.022957 2.604038,5.777595 3.229098,6.171193 0.355437,0.223818 0.870778,-0.124574 2.778125,-1.878131 1.287955,-1.184107 3.114058,-2.790006 4.058007,-3.568664 3.172948,-2.617348 6.953668,-8.374707 8.370147,-12.746235 l 0.605532,-1.868787 0.01184,1.785937 c 0.0089,1.337968 0.103591,1.785938 0.377635,1.785938 0.326988,0 1.445202,-1.569929 3.015278,-4.233333 2.952828,-5.009039 2.636527,-11.858227 -0.873633,-18.917708 -2.448592,-4.9245 -4.983622,-7.493031 -10.161582,-10.29587 -1.320928,-0.715021 -2.366266,-1.33546 -2.322972,-1.378753 0.130709,-0.130709 5.530201,1.48759 6.727145,2.016215 1.577387,0.696645 3.274541,1.911378 5.242479,3.752288 1.788099,1.672678 5.801187,6.191529 6.596171,7.427474 0.480596,0.747174 1.202546,0.986187 1.198786,0.396875 -10e-4,-0.181901 -0.177886,-1.739873 -0.392718,-3.46216 -0.622033,-4.986772 0.08985,-8.256005 2.258998,-10.374121 l 1.03772,-1.013306 -0.26338,0.90943 c -1.26383,4.363851 -0.67675,8.455557 2.25382,15.70822 1.73068,4.283147 2.25142,6.008263 2.25142,7.458615 0,1.341027 0.32206,1.619359 1.20464,1.04107 1.58368,-1.037664 3.38278,-4.976348 4.13307,-9.048309 0.17331,-0.940601 0.39869,-1.554486 0.5066,-1.379881 0.38035,0.615408 0.5741,6.197462 0.26513,7.638163 -0.16477,0.768306 -0.94606,2.778525 -1.73619,4.467152 -1.61774,3.457367 -2.73652,7.031119 -2.96976,9.486376 -0.15487,1.630197 -0.1477,1.653646 0.5057,1.653646 0.36454,0 1.1259,-0.309492 1.69191,-0.68776 2.21153,-1.477977 3.59957,-3.149409 5.47125,-6.588281 l 1.00804,-1.852084 -0.115,3.042709 c -0.26494,7.01007 -3.38482,11.994207 -12.74352,20.35832 -5.390605,4.817733 -12.295781,10.373374 -15.413087,12.400788 -1.636495,1.064334 -2.975446,2.039573 -2.975446,2.167198 0,0.533224 0.591261,0.494577 2.425631,-0.158549 6.575729,-2.341284 15.611112,-8.227116 21.585302,-14.061104 1.34607,-1.314477 2.4474,-2.343244 2.4474,-2.286149 0,0.0571 -0.17973,1.323418 -0.3994,2.814049 -0.96774,6.566912 -3.14286,11.21922 -6.86012,14.672915 -3.30058,3.06655 -7.155935,4.986321 -11.79048,5.871051 -9.375611,1.789793 -8.658241,1.694288 -9.307978,1.239194 -0.395478,-0.277003 -1.17437,-0.419799 -2.289828,-0.419799 -2.673044,0 -8.65956,2.556284 -8.101425,3.459365 0.08594,0.13905 0.58027,0.429986 1.098515,0.646522 0.910144,0.380283 0.937869,0.432698 0.813331,1.537601 -0.279775,2.482153 -3.267762,7.984316 -6.020421,11.086176 l -0.967465,1.09019 z M 58.126819,85.575217 c 0.286313,-0.463264 -1.015579,-1.031506 -4.887607,-2.133312 -6.021908,-1.713566 -8.475229,-3.138793 -13.029428,-7.56929 -2.002505,-1.948113 -2.499105,-1.847535 -1.543564,0.312624 0.302542,0.683946 0.550076,1.295539 0.550076,1.359095 0,0.06356 -0.698611,-0.37449 -1.552468,-0.973437 -1.561272,-1.09517 -3.945256,-3.767007 -4.554759,-5.104721 -0.180242,-0.395587 -0.442546,-0.719249 -0.582899,-0.719249 -0.774403,0 1.19936,4.600769 3.141193,7.322004 1.340344,1.878324 2.990405,3.212548 5.930183,4.795091 2.861755,1.540541 4.348669,1.893166 9.260416,2.196127 2.401093,0.148102 4.841875,0.367803 5.423958,0.488225 1.494216,0.309125 1.668869,0.311666 1.844899,0.02684 z m -4.093857,-0.81646 c -0.800365,-0.11064 -2.415607,-0.212939 -3.589428,-0.227331 -4.026859,-0.04937 -6.137855,-0.674627 -10.077335,-2.984808 -2.619408,-1.536066 -4.320591,-3.368951 -5.900296,-6.35708 l -1.159696,-2.193652 1.734465,1.852083 c 1.684749,1.798995 4.54072,3.824139 4.894332,3.470527 0.09616,-0.09616 -0.08573,-0.7112 -0.404223,-1.366744 -0.318488,-0.655543 -0.579069,-1.261068 -0.579069,-1.34561 0,-0.08454 0.734301,0.52612 1.63178,1.357027 4.226627,3.913111 6.773122,5.340502 12.307523,6.898754 4.343463,1.222935 4.523443,1.364283 1.141947,0.896834 z m 28.178123,0.79868 c 0.873125,-0.147221 3.611562,-0.38184 6.085416,-0.521375 5.237492,-0.295416 6.714013,-0.640331 10.174049,-2.376658 3.16451,-1.588024 4.98465,-3.010417 6.51854,-5.094064 1.21462,-1.649939 2.84031,-4.781387 3.16204,-6.090809 0.24657,-1.003503 -0.28442,-0.93983 -0.82136,0.09849 -0.60585,1.171597 -4.27,4.754838 -5.59639,5.472831 l -1.11521,0.603673 0.66997,-1.463411 c 0.36849,-0.804876 0.59431,-1.585837 0.50184,-1.735469 -0.0957,-0.154824 -0.92995,0.394481 -1.936021,1.274741 -3.603079,3.152506 -6.56177,5.160866 -9.033176,6.131722 -0.794458,0.312091 -3.29477,1.0459 -5.55625,1.630685 -4.102918,1.060955 -5.458574,1.609059 -5.162931,2.087421 0.191739,0.310239 0.162641,0.310485 2.109483,-0.01778 z m 0.396875,-0.799971 c 0.509323,-0.150639 2.442812,-0.681534 4.296642,-1.179767 5.25805,-1.413145 7.389615,-2.598753 13.418038,-7.463313 l 0.91364,-0.737251 -0.7152,1.290096 c -0.809865,1.460847 -0.86851,1.752613 -0.35228,1.752613 0.69951,0 4.27984,-2.564398 5.56685,-3.987239 l 1.29957,-1.436719 -1.03084,1.984374 c -1.46579,2.821646 -4.04508,5.327159 -7.124602,6.920808 -3.686059,1.907533 -5.404491,2.335603 -10.450985,2.603395 -2.401093,0.127414 -4.901406,0.298089 -5.55625,0.379277 -1.154108,0.143087 -1.162223,0.139214 -0.264583,-0.126274 z M 59.989068,78.221438 c 0.0027,-4.319753 0.05344,-4.823697 0.632131,-6.283886 0.346032,-0.873125 0.625038,-2.024748 0.620014,-2.559163 -0.01499,-1.594934 -1.281148,-3.526087 -3.764344,-5.741422 -3.904566,-3.483382 -4.686356,-4.420814 -6.181192,-7.411761 -0.772004,-1.544668 -1.472819,-3.076377 -1.557367,-3.403799 -0.300363,-1.163187 -0.689828,-0.567922 -0.865548,1.322917 -0.207604,2.233929 0.209619,6.477996 0.801849,8.156555 l 0.411596,1.166586 -1.014341,-0.990477 c -1.149202,-1.122166 -1.388904,-1.205419 -1.388904,-0.482392 0,0.695509 1.445615,4.755158 2.543358,7.142384 0.715555,1.556094 0.792723,1.862877 0.373055,1.483083 -0.291014,-0.263365 -0.900077,-1.056935 -1.353472,-1.76349 -1.026181,-1.599165 -1.706988,-1.738564 -1.435991,-0.294027 0.554901,2.957881 2.731471,6.614118 5.482101,9.208923 2.184724,2.060957 6.035094,5.146277 6.42243,5.146323 0.175489,2.1e-5 0.272699,-1.662363 0.274625,-4.696354 z m -3.335973,1.82094 c -3.950191,-3.297163 -5.70522,-5.330625 -7.048939,-8.167243 -0.641978,-1.355228 -1.128514,-2.578891 -1.081192,-2.719251 0.04732,-0.140359 0.59528,0.403305 1.217685,1.208143 1.101554,1.424429 1.7679,1.937174 2.093868,1.611206 0.08799,-0.08799 -0.290152,-1.144497 -0.840317,-2.34779 -0.550165,-1.203294 -1.404466,-3.304068 -1.898447,-4.668388 l -0.898146,-2.48058 1.485382,1.357555 c 1.495605,1.366899 2.422051,1.617551 1.460504,0.395143 -1.081906,-1.375422 -1.866545,-5.104397 -1.857995,-8.830078 l 0.0046,-1.984375 1.351721,2.778125 c 1.304962,2.682023 1.490877,2.915412 5.37451,6.746874 3.397381,3.351743 4.090632,4.171395 4.459167,5.272212 0.429522,1.282984 0.425032,1.334941 -0.285815,3.307291 -0.673499,1.868723 -0.722547,2.29372 -0.727453,6.303309 -0.0029,2.364714 -0.07499,4.299479 -0.160216,4.299479 -0.08523,0 -1.277216,-0.936734 -2.64887,-2.081632 z m 22.940371,1.913112 c 3.496773,-2.372975 7.726506,-6.41167 9.067415,-8.657884 1.477838,-2.475588 2.652622,-6.254845 1.944322,-6.254845 -0.112661,0 -0.724327,0.713368 -1.359257,1.585263 -1.771305,2.432382 -1.967975,2.393097 -0.789502,-0.157703 1.346145,-2.913725 2.698257,-6.904777 2.46636,-7.279995 -0.104725,-0.169448 -0.632534,0.16696 -1.319037,0.840712 l -1.144453,1.123196 0.546425,-1.693757 c 0.620188,-1.922403 0.985405,-8.527634 0.510164,-9.22672 -0.330993,-0.486896 -0.193011,-0.693602 -1.937673,2.902754 -1.693487,3.490867 -2.739752,4.778117 -6.273314,7.718243 -2.72836,2.270151 -4.430517,4.145042 -4.685502,5.16098 -0.1014,0.404012 0.09046,1.192985 0.526254,2.164059 1.504172,3.351742 1.809956,6.595639 1.0698,11.348905 -0.206686,1.327328 -0.02976,1.382124 1.377998,0.426792 z m -0.750757,-1.352834 c 0.106357,-0.691224 0.183804,-2.566458 0.172105,-4.167187 -0.01838,-2.514642 -0.119848,-3.162273 -0.746177,-4.7625 -1.40156,-3.580885 -1.380327,-3.37133 -0.474937,-4.687268 0.446175,-0.648494 2.130493,-2.279487 3.742929,-3.624429 3.689427,-3.077373 4.568232,-4.120683 6.311803,-7.493316 l 1.404014,-2.715819 -0.118361,3.307291 c -0.126724,3.540942 -0.677975,5.883678 -1.733117,7.365488 -0.919976,1.291987 -0.259356,1.165144 1.36852,-0.262762 0.831264,-0.729151 1.511388,-1.251846 1.511388,-1.161545 0,0.395378 -1.871351,4.958208 -2.745078,6.693198 -0.988851,1.963595 -1.173108,2.711454 -0.668046,2.711454 0.330254,0 1.62549,-1.270023 2.69836,-2.645834 l 0.722135,-0.926041 -0.394321,1.140061 c -0.827204,2.391609 -2.41027,4.96523 -4.110676,6.682804 -1.631991,1.648469 -6.622627,5.803176 -6.970777,5.803176 -0.08973,0 -0.07612,-0.565547 0.03024,-1.256771 z M 43.629845,67.469117 c -0.07754,-0.202066 -1.100188,-1.791981 -2.272551,-3.533144 -2.744701,-4.07636 -4.496694,-7.381554 -5.197146,-9.804593 -0.307045,-1.062145 -0.667755,-1.923876 -0.801578,-1.914958 -0.133824,0.0089 -0.243316,1.254155 -0.243316,2.767193 0,1.513038 -0.08375,2.835553 -0.186116,2.938921 -0.656985,0.663435 -3.387826,-1.363049 -6.025106,-4.471069 -2.578203,-3.038399 -3.101173,-2.712052 -1.328738,0.829166 1.560826,3.118434 3.683543,5.248938 8.777926,8.810124 7.177708,5.017518 7.625221,5.286788 7.276625,4.37836 z m -5.861592,-4.003603 c -5.138109,-3.567603 -7.597172,-5.772948 -9.004099,-8.075088 -1.726382,-2.824862 -1.495717,-2.91901 0.952181,-0.388644 2.597,2.684491 4.433287,3.895766 5.186086,3.420912 0.61487,-0.38785 0.905192,-1.59325 0.727756,-3.021599 l -0.147905,-1.190625 0.626819,1.472068 c 1.004483,2.359001 2.718216,5.400733 4.705308,8.351524 1.016353,1.509264 1.816701,2.741677 1.778551,2.738697 -0.03815,-0.003 -2.209263,-1.491241 -4.824697,-3.307245 z m 65.164827,-0.96818 c 2.71842,-2.043487 5.51881,-4.267753 6.22307,-4.942814 1.53192,-1.468387 3.40514,-4.015611 4.13328,-5.620457 1.14753,-2.529218 0.42488,-2.445011 -1.93851,0.225886 -2.68537,3.034754 -6.00921,5.606804 -5.98359,4.630208 0.003,-0.10914 0.1773,-1.150937 0.38765,-2.315104 0.21034,-1.164166 0.38659,-2.384557 0.39166,-2.711979 0.0154,-0.99058 -0.4799,-0.668224 -0.80006,0.520739 -0.70452,2.616403 -3.75449,7.856174 -6.819798,11.71624 -1.155592,1.455208 -2.043888,2.741599 -1.973991,2.858647 0.167648,0.280739 0.579228,-6.04e-4 6.380289,-4.361366 z m -4.450121,2.558656 c 0,-0.06077 0.707525,-1.037594 1.572281,-2.170716 0.86475,-1.133122 2.35357,-3.42944 3.3085,-5.102929 l 1.73623,-3.042709 -0.0674,1.322917 c -0.061,1.197501 -0.0105,1.330991 0.53273,1.40809 0.83475,0.118481 2.74295,-1.345172 5.37738,-4.124629 l 2.18999,-2.310544 -0.90873,1.715538 c -1.34461,2.538409 -3.72617,4.879034 -9.01053,8.855658 -2.60177,1.9579 -4.730491,3.510096 -4.730491,3.449324 z m 2.460901,-9.401764 c 2.70291,-2.986807 4.15368,-6.972363 4.15368,-11.410954 0,-2.123075 -0.30105,-2.266233 -1.25242,-0.595566 -0.72253,1.26882 -0.72641,1.148452 -0.0641,-1.989507 0.85348,-4.043945 -0.22106,-3.874457 -2.29117,0.36139 -1.553536,3.178842 -2.417277,5.87483 -2.012014,6.280093 0.231148,0.231148 0.405127,0.223097 0.713744,-0.03303 0.70577,-0.58574 0.49605,0.48353 -0.504211,2.570726 -0.501764,1.047004 -0.804525,1.970251 -0.672803,2.051659 0.131721,0.08141 0.78038,-0.658256 1.441464,-1.6437 0.66108,-0.985444 1.20197,-1.580873 1.20197,-1.323174 0,0.71781 -1.00044,3.527251 -1.868177,5.24623 -1.331415,2.637518 -0.94159,2.801623 1.154077,0.485834 z m -0.18669,-1.179173 c 0.78029,-1.897265 1.42996,-4.131803 1.42996,-4.918364 0,-0.875908 -0.59315,-1.048138 -1.05782,-0.307156 -0.26286,0.419162 -0.27783,0.412897 -0.15801,-0.06615 0.41477,-1.658214 0.44028,-1.941896 0.18858,-2.097453 -0.152,-0.09394 -0.51884,0.07166 -0.81519,0.368011 -0.760398,0.7604 -0.684944,0.385722 0.55871,-2.774361 0.98571,-2.504664 3.09759,-6.336267 2.76755,-5.021197 -0.29308,1.167799 -0.91034,4.583024 -1.07596,5.953125 -0.21203,1.754 0.0652,1.591193 1.17456,-0.689902 l 0.75825,-1.559056 0.0203,1.400217 c 0.0475,3.28131 -1.45699,7.602626 -3.43468,9.865128 l -0.7915,0.905487 z M 41.068379,53.987307 c 0,-0.341021 -0.238125,-1.31216 -0.529167,-2.158087 -0.656714,-1.908775 -0.655897,-1.952267 0.02052,-1.092342 0.302327,0.384346 0.781038,0.822628 1.063802,0.973958 1.020077,0.545929 1.059957,-0.04597 0.116737,-1.732607 -0.963477,-1.72286 -1.175431,-2.330257 -0.618974,-1.773801 0.547076,0.547077 1.005758,0.358856 0.999395,-0.410104 -0.0073,-0.885529 -3.42455,-7.780155 -3.941534,-7.952483 -0.306979,-0.102326 -0.342328,0.379614 -0.210764,2.873503 l 0.158076,2.99645 -0.993999,-1.154118 c -1.376227,-1.597919 -1.719593,-1.315041 -1.562967,1.287633 0.146815,2.439646 1.006472,4.294234 3.23363,6.976098 1.548308,1.864418 2.265246,2.233419 2.265245,1.1659 z M 38.993325,52.146099 C 37.048568,49.70209 36.261396,47.990524 36.122056,45.903038 l -0.116595,-1.746734 0.61323,0.670115 c 0.337276,0.368564 0.800076,0.954433 1.028443,1.301932 0.27265,0.414881 0.534004,0.558401 0.761185,0.417995 0.267101,-0.165078 0.304856,-0.793611 0.165613,-2.75714 -0.169219,-2.38625 -0.153964,-2.506464 0.24702,-1.946559 0.395063,0.551639 2.776594,5.507534 2.776594,5.77801 0,0.06585 -0.296444,-0.07452 -0.658763,-0.311918 -0.611075,-0.400391 -0.671074,-0.399557 -0.828819,0.01152 -0.09961,0.25958 0.174274,1.120878 0.661159,2.079185 l 0.831215,1.636027 -1.148388,-1.303723 c -0.655316,-0.743956 -1.222067,-1.184509 -1.319988,-1.026068 -0.09438,0.15271 0.182562,1.325405 0.615426,2.605989 0.432865,1.280584 0.742628,2.372735 0.688361,2.427001 -0.05427,0.05427 -0.704257,-0.66239 -1.444424,-1.59257 z m 30.36783,-1.444874 c 0.06306,-0.0393 -0.02342,-0.209527 -0.192185,-0.378288 -0.365233,-0.365232 -1.244686,0.307695 -1.455451,1.11366 -0.12086,0.46217 -0.06891,0.456066 0.701227,-0.08239 0.457466,-0.319844 0.88335,-0.613687 0.946409,-0.652985 z M 45.82486,46.074533 c -0.0033,-0.181901 -0.360392,-1.640417 -0.793515,-3.241146 -0.914615,-3.380215 -1.056095,-7.157433 -0.386497,-10.318651 0.463433,-2.1879 0.467186,-2.249057 0.138004,-2.249057 -0.498707,0 -1.415215,1.218146 -2.246273,2.985557 l -0.843998,1.794931 -0.325531,-1.398056 c -0.179042,-0.768931 -0.396594,-2.146033 -0.483449,-3.060225 -0.08685,-0.914193 -0.254174,-1.721659 -0.371821,-1.794369 -0.488981,-0.302207 -1.116345,1.305088 -1.226222,3.141555 -0.145225,2.427279 0.463604,4.432969 2.112282,6.958585 0.666882,1.021599 1.845212,3.129636 2.618512,4.684528 1.297216,2.608345 1.823773,3.335169 1.808508,2.496348 z M 44.242348,42.94363 c -5.67e-4,-0.206154 -0.592137,-1.327326 -1.314599,-2.491493 -2.865048,-4.616699 -3.514028,-6.656916 -3.042119,-9.563598 l 0.208513,-1.284318 0.326453,1.852083 c 0.624874,3.545125 1.187647,5.082932 1.736095,4.743972 0.129033,-0.07975 0.235768,-0.465389 0.237189,-0.856983 0.0026,-0.72916 0.953759,-2.954596 1.653192,-3.868179 0.346084,-0.452047 0.350019,-0.316015 0.03445,1.190625 -0.487926,2.329506 -0.46528,6.802758 0.0444,8.769664 0.226437,0.873847 0.3455,1.655018 0.264584,1.735934 -0.08092,0.08092 -0.147584,-0.02155 -0.148151,-0.227707 z M 98.61399,42.461973 c 0.81163,-1.586726 1.89637,-3.435901 2.41053,-4.109277 1.61632,-2.116831 2.33027,-3.984993 2.43895,-6.381943 0.17036,-3.757019 -1.30292,-5.829627 -1.63142,-2.295084 -0.0916,0.985182 -0.36216,2.443698 -0.60132,3.241146 l -0.43485,1.449906 -0.363,-1.190625 c -0.42836,-1.404978 -2.050842,-3.704167 -2.61395,-3.704167 -0.491265,0 -0.490086,0.08968 0.03022,2.298686 0.234443,0.995352 0.429564,2.987026 0.435781,4.448189 0.01102,2.589551 -0.193795,3.662509 -1.502534,7.871354 -0.333863,1.073688 -0.336405,1.256771 -0.01745,1.256771 0.208356,0 1.025492,-1.274934 1.849039,-2.884956 z m -0.566085,-0.686919 c 0.07644,-0.291042 0.279134,-1.064948 0.45044,-1.719792 0.417774,-1.597002 0.357735,-6.674496 -0.09933,-8.400814 -0.264682,-0.999686 -0.279882,-1.316346 -0.05419,-1.129041 0.541678,0.449552 1.673205,2.739807 1.865165,3.775168 0.34141,1.841455 0.96853,1.128516 1.70324,-1.936338 0.29413,-1.226967 0.54748,-2.588037 0.56301,-3.024599 0.0277,-0.779273 0.0321,-0.781686 0.24006,-0.132292 0.11651,0.363802 0.22371,1.463853 0.23821,2.444558 0.0315,2.132438 -0.54764,3.83234 -1.98361,5.821898 -0.55211,0.764959 -1.466921,2.164742 -2.032903,3.110627 -0.565982,0.945885 -0.966519,1.481666 -0.890083,1.190625 z M 85.900557,96.203238 c -0.802057,-1.919591 -0.273885,-2.567297 2.409782,-2.955156 1.990852,-0.287729 4.616371,-0.363556 4.616371,-0.133324 0,0.07856 -0.240981,0.615193 -0.535512,1.192522 -0.515405,1.010277 -0.581739,1.047941 -1.766718,1.00312 -1.073976,-0.04062 -1.318131,0.05605 -1.911884,0.757038 -0.425938,0.502862 -1.007988,0.849804 -1.555268,0.927047 -0.793173,0.111948 -0.910169,0.03829 -1.256771,-0.791247 z m -35.505616,0.02155 c -0.347839,-0.067 -0.595313,-0.307816 -0.595313,-0.579306 0,-0.255554 -0.300332,-0.746792 -0.667406,-1.09164 -0.642281,-0.603392 -0.727183,-0.614648 -2.255315,-0.299018 -0.873351,0.180388 -1.716509,0.248499 -1.873686,0.151358 -0.33095,-0.204538 -1.274614,-2.195 -1.283198,-2.706638 -0.0032,-0.190489 0.09738,-0.282566 0.223509,-0.204616 0.126126,0.07795 1.802058,0.261414 3.724293,0.407699 3.94877,0.300507 4.870954,0.60468 4.991708,1.646465 0.09658,0.833257 -0.875789,2.878234 -1.343928,2.82639 -0.178943,-0.01982 -0.593242,-0.08763 -0.920664,-0.150694 z m 44.648435,-2.308987 c 0,-1.42087 0.08048,-1.727506 0.487318,-1.85663 0.815227,-0.258743 1.680123,-1.378276 2.160084,-2.796042 l 0.455576,-1.345734 0.166866,1.043522 c 0.339457,2.122848 -0.726402,5.349241 -2.054669,6.219555 -1.074316,0.703919 -1.215175,0.557323 -1.215175,-1.264671 z M 40.599913,93.041183 C 39.77844,91.861722 39.480317,90.64267 39.489517,88.500674 l 0.0086,-2.011039 0.484704,1.403337 c 0.266587,0.771836 0.79594,1.728197 1.176339,2.125249 0.623942,0.651255 0.675544,0.857782 0.527223,2.110119 -0.09043,0.763515 -0.257375,1.445662 -0.370995,1.515883 -0.11362,0.07022 -0.435601,-0.201147 -0.715512,-0.60304 z M 72.588691,52.226095 c 0.0082,-0.856819 0.969774,-1.963744 2.352177,-2.707611 1.13702,-0.611827 1.278319,-0.648416 0.655634,-0.169773 -1.020665,0.784561 -2.293962,2.083844 -2.696419,2.751449 -0.222741,0.369486 -0.314062,0.406419 -0.311392,0.125935 z m -0.353213,-1.954252 c 0.05753,-0.492755 -0.02359,-1.135429 -0.180255,-1.428163 -0.237628,-0.444012 -0.176615,-0.603162 0.368051,-0.96004 0.359095,-0.235288 1.220678,-0.558856 1.914628,-0.719039 1.058901,-0.244423 1.431609,-0.217334 2.318498,0.168513 l 1.056769,0.459755 -1.207637,0.324582 c -1.673256,0.449729 -3.681597,1.678326 -3.965914,2.426139 -0.329561,0.86681 -0.426906,0.779833 -0.30414,-0.271747 z"
       id="path3" /><path
       style="fill:#37246b;fill-opacity:1;stroke-width:1.75318"
       d="m 151.82214,532.17431 c -0.16147,-0.42078 0.14307,-0.86589 2.35731,-3.44548 5.25448,-6.12145 6.80657,-9.85587 8.27943,-19.92087 1.01103,-6.90906 1.51988,-13.53693 1.52348,-19.84362 0.003,-5.38978 -0.21436,-7.18312 -1.01011,-8.33139 l -0.47991,-0.69252 0.38677,-0.4117 c 1.29429,-1.37771 5.68154,-0.95375 9.37909,0.90636 1.8423,0.9268 2.54103,1.61262 2.1675,2.12746 -1.34034,1.84742 -1.23915,5.01438 0.29281,9.16366 0.71588,1.93895 2.32824,5.12942 3.5178,6.96085 1.10111,1.69525 4.09495,5.65685 4.27498,5.65685 0.25131,0 4.23111,-4.21939 5.08908,-5.39545 3.04314,-4.17137 6.23528,-10.81643 6.23528,-12.97999 0,-0.87236 -0.25368,-1.40505 -1.22865,-2.58004 -1.20771,-1.45546 -0.85981,-1.99575 1.99649,-3.10062 5.14209,-1.98906 10.2098,-2.56029 10.64169,-1.19954 0.15263,0.48091 -0.32489,1.14328 -1.11488,1.54648 -1.51635,0.77391 -1.72602,1.50984 -1.69325,5.9431 0.046,6.22352 2.03438,24.76054 3.33808,31.11985 1.10822,5.40578 2.17236,7.42515 5.97878,11.34571 l 2.29077,2.35945 -9.30031,-0.0503 c -9.77641,-0.0528 -10.0194,-0.0733 -9.56157,-0.80642 0.17639,-0.28243 1.61444,-1.55807 2.77358,-2.46034 l 0.49681,-0.38671 -0.63212,-6.5069 c -1.32905,-13.68085 -2.18486,-20.68742 -2.87796,-23.56206 l -0.31876,-1.32204 -2.11793,2.82464 c -2.56306,3.41833 -4.69613,6.03694 -7.73448,9.49507 l -2.2884,2.60456 -1.35979,-1.72068 c -4.1873,-5.2986 -6.68687,-8.78539 -7.59225,-10.59082 -0.65986,-1.31585 -0.86735,-1.47299 -1.27697,-0.96712 -0.6526,0.80592 -1.22227,4.11106 -2.62483,15.22895 -1.34494,10.6611 -1.44337,13.2719 -0.53678,14.23693 0.21164,0.22528 0.83383,0.58754 1.38264,0.80503 2.69732,1.0689 2.61254,1.09454 -8.72488,2.63826 -2.91682,0.39716 -6.29767,0.91672 -7.51301,1.15459 -1.21534,0.23787 -2.2321,0.43279 -2.25945,0.43317 -0.0274,3.8e-4 -0.0976,-0.12401 -0.15608,-0.27641 z"
       id="path14"
       transform="scale(0.26458333)" /><path
       style="fill:#37246b;fill-opacity:1;stroke-width:1.75318"
       d="m 231.66586,532.15063 c -7.27521,-1.24866 -10.71631,-3.48682 -13.32195,-8.66485 -5.12073,-10.17611 -0.0704,-21.35091 10.66852,-23.60637 2.10911,-0.44297 5.35542,-0.47361 7.24962,-0.0684 2.08523,0.44603 4.1055,1.53576 5.58813,3.01422 1.03535,1.03244 1.42512,1.59656 2.2097,3.1981 0.92508,1.88832 0.95262,1.98798 0.95262,3.44714 0,1.3839 -0.0414,1.56007 -0.52381,2.22998 -1.45892,2.0259 -4.48857,3.38354 -12.99961,5.8254 -7.1743,2.05834 -8.03394,2.85447 -6.17978,5.72322 2.05097,3.17324 4.44088,4.60618 7.68238,4.60618 1.70929,0 3.28434,-0.42438 4.37648,-1.17919 0.98946,-0.68384 1.72232,-1.87489 1.72232,-2.79911 0,-0.84356 -0.21098,-1.17197 -1.04571,-1.62774 -0.79658,-0.43494 -0.97273,-0.75054 -0.83341,-1.49317 0.1398,-0.74521 1.00607,-1.67686 1.96751,-2.11599 1.46285,-0.66817 3.58791,-0.23649 4.7993,0.97489 0.99521,0.99522 1.37919,2.29841 1.25334,4.25369 -0.21674,3.36742 -1.91448,5.31321 -6.1016,6.99309 -3.08541,1.23787 -5.41637,1.6404 -7.46405,1.28895 z m -2.44868,-18.71678 c 4.34837,-1.06499 7.92332,-2.36386 8.87493,-3.22449 0.9075,-0.82073 1.16119,-2.59391 0.50331,-3.51782 -0.49915,-0.70099 -2.51303,-1.74208 -4.20888,-2.1758 -5.0992,-1.30416 -9.64341,1.22506 -11.4061,6.34841 -0.63713,1.85184 -0.31199,3.01941 0.90724,3.25795 0.85221,0.16673 2.9388,-0.10273 5.3295,-0.68825 z"
       id="path15"
       transform="scale(0.26458333)" /><path
       style="fill:#37246b;fill-opacity:1;stroke-width:1.23969"
       d="m 256.125,530.99692 c -2.78857,-0.14044 -3.9375,-0.35601 -3.9375,-0.73879 0,-0.28039 0.72758,-0.94318 1.29617,-1.18075 1.43643,-0.60018 1.63378,-2.07624 1.63151,-12.20238 -0.002,-10.37784 -0.036,-10.54005 -2.34217,-11.2883 -1.51919,-0.49291 -1.73783,-0.87155 -1.16109,-2.01076 0.33803,-0.6677 3.34259,-4.70413 3.4719,-4.66427 0.0461,0.0142 0.92556,0.80418 1.95435,1.75551 3.22633,2.9834 3.00911,2.94064 5.34944,1.05294 1.64663,-1.32817 3.99442,-2.10585 6.42489,-2.12817 2.312,-0.0212 3.71437,0.47443 4.84628,1.71292 1.11014,1.21467 1.59703,2.56996 1.50353,4.18516 -0.14598,2.52172 -1.94262,4.01414 -4.64089,3.85507 -1.75448,-0.10343 -3.06127,-0.80954 -3.7856,-2.04552 -0.42014,-0.71691 -0.29724,-0.87037 0.76533,-0.95567 1.02708,-0.0824 1.43651,-0.33281 1.43588,-0.87804 -6e-4,-0.51885 -0.38719,-1.14892 -0.90464,-1.47442 -0.55629,-0.34993 -1.38805,-0.25139 -2.32088,0.27495 -1.02284,0.57712 -3.024,2.61016 -3.49818,3.55391 -0.73935,1.47148 -0.79943,2.04216 -0.86601,8.22508 -0.0785,7.28605 0.0914,9.35371 0.89962,10.94856 0.16006,0.31587 0.86299,1.18878 1.56207,1.93979 1.46955,1.57874 1.59025,1.75534 1.28245,1.87641 -0.20501,0.0806 -5.84764,0.32199 -6.77896,0.28995 -0.24063,-0.008 -1.225,-0.0547 -2.1875,-0.10318 z"
       id="path16"
       transform="scale(0.26458333)" /><path
       style="fill:#37246b;fill-opacity:1;stroke-width:1.23969"
       d="m 291.75,532.16632 c -0.88607,-0.1938 -3.14836,-0.87838 -3.9373,-1.19145 -5.29414,-2.10088 -7.61706,-8.33259 -5.23709,-14.04955 0.57135,-1.37244 1.44014,-2.61845 2.54213,-3.64588 2.15469,-2.0089 5.18398,-2.89083 9.06976,-2.64049 2.28485,0.1472 3.84977,0.12495 4.29498,-0.0611 0.90681,-0.37888 0.89218,-1.51273 -0.044,-3.41207 -0.99067,-2.00984 -2.01159,-2.90639 -4.12596,-3.62333 -2.57725,-0.87388 -5.432,-0.86886 -6.93543,0.0122 -0.93275,0.54662 -1.25228,1.82203 -0.63437,2.5321 0.29222,0.3358 0.32014,0.34263 0.65625,0.16069 0.45005,-0.24363 0.78811,-0.91874 0.78835,-1.57436 2.3e-4,-0.60594 0.38274,-1.17334 0.79052,-1.17264 0.65797,10e-4 1.54452,0.87497 1.89473,1.86758 0.65727,1.86291 -0.26187,3.62827 -2.28273,4.38438 -2.3415,0.87606 -5.06145,-0.038 -5.9898,-2.01303 -1.17144,-2.49214 0.47437,-5.60827 3.86348,-7.315 1.61923,-0.81543 2.50603,-0.98785 5.0365,-0.97927 2.02701,0.007 2.37157,0.0404 3.47665,0.33855 3.92549,1.05901 7.24411,3.53679 8.74436,6.52882 0.85667,1.70849 1.90199,5.96114 2.90033,11.7993 0.76129,4.45193 0.99171,5.55261 1.61655,7.72209 0.5502,1.91035 1.01572,2.94084 1.66874,3.69399 1.24314,1.43378 0.91591,1.58962 -3.34741,1.59414 -3.84374,0.004 -5.83367,-0.26465 -5.79186,-0.78213 0.0345,-0.4266 -0.84938,-0.20416 -3.68679,0.92784 -0.85,0.3391 -1.89085,0.69801 -2.31301,0.79756 -0.71396,0.16837 -2.44472,0.22632 -3.01756,0.10103 z m 4.0876,-4.93065 c 2.86288,-0.60215 4.51582,-3.06896 4.304,-6.42317 -0.20311,-3.21632 -1.68032,-5.1302 -4.57659,-5.92948 -2.34145,-0.64616 -4.87104,-0.0516 -6.60303,1.55187 -1.64237,1.52055 -2.31328,3.96331 -1.66266,6.05374 0.98973,3.18002 5.10653,5.46885 8.53828,4.74704 z"
       id="path17"
       transform="scale(0.26458333)" /><path
       style="fill:#37246b;fill-opacity:1;stroke-width:0.87659"
       d="m 316.26074,530.92671 c 0.23604,-0.25523 0.84035,-0.90449 1.34291,-1.44281 1.5121,-1.61967 1.87289,-2.32281 2.17368,-4.23615 0.31606,-2.01052 0.36352,-3.88585 0.3613,-14.27471 -0.002,-10.26908 -0.0586,-12.61328 -0.34887,-14.4993 -0.16934,-1.10028 -0.27299,-1.44135 -0.5313,-1.74834 -0.18332,-0.21786 -0.29817,-0.26265 -0.79161,-0.30873 -1.18963,-0.11109 -1.42925,-0.49724 -0.94447,-1.52196 0.44706,-0.94498 1.83594,-2.50795 4.33272,-4.87578 1.80186,-1.7088 2.57002,-2.32957 3.16286,-2.55598 0.69797,-0.26655 1.05426,0.008 1.33195,1.02651 0.1388,0.50907 0.15637,1.00754 0.15424,4.37523 -10e-4,2.09038 -0.0367,6.36617 -0.0786,9.50174 -0.0778,5.82177 -0.0131,8.32915 0.244,9.45756 0.10909,0.47878 0.11526,0.48577 0.40768,0.46181 1.16712,-0.0956 5.86431,-2.95815 8.09894,-4.93561 0.98365,-0.87044 1.8928,-2.28501 1.8928,-2.94503 0,-0.30351 -0.0377,-0.37431 -0.26077,-0.48966 -0.36078,-0.18657 -0.7072,-0.1704 -2.05278,0.0958 -1.66518,0.32942 -2.19895,0.22513 -2.56977,-0.50209 -0.31377,-0.61536 -0.14811,-3.14043 0.26771,-4.08047 0.3591,-0.81179 1.22348,-1.52397 2.25139,-1.85496 0.83905,-0.27017 2.18475,-0.24752 3.11552,0.0524 0.96263,0.31023 1.72708,0.78404 2.37787,1.4738 0.63748,0.67566 1.02083,1.31865 1.35423,2.27147 0.21921,0.62645 0.23964,0.79613 0.23687,1.96722 -0.003,1.13486 -0.0303,1.37058 -0.24092,2.05841 -0.49429,1.614 -1.42525,3.10814 -2.79811,4.49085 -1.19839,1.20698 -1.85007,1.68831 -4.64225,3.42883 -1.26395,0.78789 -2.30931,1.46427 -2.32302,1.50305 -0.0137,0.0388 0.64257,0.4202 1.45841,0.84759 1.92859,1.01034 2.78381,1.58017 3.47963,2.31847 1.07869,1.14453 1.74706,2.3809 2.68944,4.97501 1.28138,3.52727 2.13798,4.75951 3.40033,4.89145 0.74193,0.0776 1.39124,0.40806 1.93853,0.98674 0.64052,0.67724 0.91699,1.32272 0.92738,2.16515 0.0102,0.82732 -0.0554,1.06426 -0.40458,1.46199 -1.29053,1.46984 -5.33791,1.10257 -7.0941,-0.64373 -0.7253,-0.72121 -1.9877,-2.92348 -2.9679,-5.17749 -0.20758,-0.47734 -0.59044,-1.2072 -0.8508,-1.62191 -1.93655,-3.08456 -5.72808,-6.57001 -7.14698,-6.57001 -0.276,0 -0.4622,0.4634 -0.68802,1.71226 -0.1765,0.97613 -0.19395,1.3644 -0.19516,4.34235 -10e-4,2.80895 0.0213,3.3826 0.15879,4.06586 0.30036,1.49216 0.74217,2.17059 2.04098,3.13403 0.44226,0.32805 0.87719,0.6789 0.96653,0.77967 0.24083,0.27164 0.15314,0.48822 -0.25202,0.62243 -0.54537,0.18065 -3.50038,0.27522 -8.69505,0.27827 l -4.71877,0.003 z"
       id="path18"
       transform="scale(0.26458333)" /><path
       style="fill:#37246b;fill-opacity:1;stroke-width:0.619843"
       d="m 353.875,531.37043 c -1.40385,-0.0585 -1.95208,-0.16127 -2.10842,-0.39541 -0.15856,-0.23747 -0.004,-0.52922 0.75056,-1.41252 0.46423,-0.54378 0.79133,-1.18303 1.10334,-2.15625 1.34673,-4.20074 1.9357,-12.75653 1.21974,-17.71875 -0.2546,-1.76456 -0.58125,-2.65568 -1.24861,-3.40625 -0.60781,-0.68359 -0.87286,-1.1238 -0.87286,-1.44968 0,-0.15073 0.0543,-0.38056 0.12074,-0.51073 0.25507,-0.49998 1.75283,-1.75802 3.22301,-2.70716 1.97225,-1.27328 4.06345,-2.33563 4.36773,-2.21887 0.0656,0.0252 0.0998,0.23697 0.13495,0.83509 0.0617,1.0511 -0.009,7.35335 -0.12641,11.30135 -0.34477,11.57379 -0.26043,13.38463 0.71484,15.34952 0.30085,0.60612 0.60418,1.05209 1.99401,2.93173 0.62273,0.84219 1.13255,1.55234 1.13293,1.57812 8.9e-4,0.0596 -8.90434,0.0423 -10.40555,-0.0202 z"
       id="path19"
       transform="scale(0.26458333)" /><path
       style="fill:#37246b;fill-opacity:1;stroke-width:0.619843"
       d="m 357.84375,494.32298 c -0.84049,-0.33347 -2.2132,-1.48318 -2.81472,-2.35745 -0.56815,-0.82578 -0.68182,-1.55684 -0.34813,-2.23889 0.35276,-0.72101 1.50879,-1.70961 2.3816,-2.03667 0.85565,-0.32063 1.90572,-0.21835 2.95987,0.28829 1.09066,0.52418 1.98247,1.62547 1.97441,2.43818 -0.006,0.56462 -0.66326,1.70262 -1.48845,2.5756 -0.38758,0.41001 -1.13589,0.99176 -1.53208,1.19104 -0.4792,0.24105 -0.78299,0.27857 -1.1325,0.1399 z"
       id="path20"
       transform="scale(0.26458333)" /><path
       style="fill:#37246b;fill-opacity:1;stroke-width:14.0254"
       d="m 175.58961,465.73909 c -0.52326,-0.52326 -0.53595,-9.65386 -0.0282,-20.29023 0.50774,-10.63636 0.50241,-21.0153 -0.0119,-23.06431 -1.58453,-6.31325 -9.49814,-13.84838 -19.0403,-18.12966 -12.70317,-5.69952 -16.70532,-8.91157 -21.48306,-17.2419 -5.7809,-10.07942 -5.27488,-11.96287 1.62685,-6.05524 4.18326,3.58072 8.09199,5.42123 13.78858,6.49266 14.16093,2.66341 14.6245,2.97024 20.37088,13.48293 6.0744,11.11281 9.83618,15.59993 15.58536,18.59056 7.96112,4.14124 9.47073,6.82771 9.47073,16.85395 0,11.07571 -0.96995,13.21717 -10.36678,22.888 -7.35285,7.56724 -8.23929,8.14614 -9.91219,6.47324 z"
       id="path21"
       transform="scale(0.26458333)" /><path
       style="fill:#37246b;fill-opacity:1;stroke-width:14.0254"
       d="m 337.28993,461.91006 c -11.71643,-8.67193 -11.9731,-9.22123 -9.46859,-20.26374 3.41199,-15.04371 4.52919,-16.97167 12.95959,-22.36454 8.92567,-5.70967 10.80001,-8.23322 14.15619,-19.05934 2.55256,-8.23385 7.59964,-14.14214 12.08074,-14.14214 1.48507,0 5.64651,-1.00032 9.24762,-2.22293 3.60111,-1.22261 6.76514,-2.00526 7.03118,-1.73922 0.26603,0.26603 -4.53666,7.35248 -10.67265,15.74766 -13.14078,17.97902 -16.0567,25.03271 -18.96342,45.87304 -3.49628,25.06727 -4.91938,26.64689 -16.37066,18.17121 z"
       id="path22"
       transform="scale(0.26458333)" /><path
       style="fill:#37246b;fill-opacity:1;stroke-width:3.50636"
       d="m 317.883,421.49794 c -0.32885,-0.53209 -1.62563,-10.10746 -1.62758,-12.01797 -0.002,-2.27686 0.20658,-2.69688 3.03517,-6.1025 4.01517,-4.83428 7.05541,-10.23635 9.15089,-16.2598 1.41266,-4.06069 1.95156,-5.06452 3.02818,-5.64071 1.01819,-0.54492 2.02411,-0.11989 2.66936,1.12788 0.97175,1.87915 2.69067,11.46337 2.71584,15.14272 0.0398,5.81193 -1.34273,8.28287 -8.83308,15.7875 -7.11136,7.1249 -9.49814,8.99946 -10.13878,7.96288 z"
       id="path23"
       transform="scale(0.26458333)" /><path
       style="fill:#37246b;fill-opacity:1;stroke-width:3.50636"
       d="m 284.18793,449.27797 c 0.23162,-5.82737 0.77918,-9.47906 2.37239,-15.82151 2.71997,-10.82802 6.25517,-18.65741 11.54802,-25.57542 9.73262,-12.721 11.20496,-15.27492 13.38344,-23.21495 1.70851,-6.22711 4.39804,-10.59554 7.72309,-12.54415 1.75931,-1.03102 6.23423,-2.2554 13.48779,-3.69037 6.59032,-1.30377 10.84214,-2.62671 12.82372,-3.99008 3.49668,-2.40577 7.13332,-8.58593 8.07134,-13.71653 0.30219,-1.65286 0.70259,-3.38894 0.88978,-3.85795 0.30258,-0.75814 0.3992,-0.79389 0.87086,-0.32223 1.66856,1.66856 2.28165,15.10503 0.91901,20.14083 -0.81889,3.02627 -2.39281,6.36241 -3.77869,8.00943 -1.35364,1.60872 -4.94575,3.8866 -7.13053,4.52174 -2.59746,0.7551 -7.47981,0.67922 -12.67441,-0.19699 -11.48815,-1.93778 -16.12131,-0.18838 -18.84197,7.11443 -1.02441,2.74973 -1.69369,6.67324 -2.553,14.96634 -0.80363,7.75576 -1.70036,12.47823 -2.76486,14.56074 -1.03338,2.02162 -4.35272,6.221 -8.79506,11.12688 -2.17649,2.4036 -4.92332,5.64297 -6.10405,7.19861 -3.04679,4.01418 -6.08013,10.32093 -7.69334,15.99554 -0.73204,2.57501 -1.47427,4.68307 -1.64941,4.68458 -0.18435,0.002 -0.22819,-2.26743 -0.10412,-5.38894 z"
       id="path24"
       transform="scale(0.26458333)" /><path
       style="fill:#37246b;fill-opacity:1;stroke-width:3.50636"
       d="m 238.01588,448.39942 c -1.62686,-9.67744 -5.05962,-15.15327 -16.88357,-26.93208 -6.53925,-6.5143 -7.44339,-7.55829 -8.60072,-9.93119 -1.61613,-3.31361 -2.15484,-5.93203 -2.87316,-13.96536 -1.28188,-14.33575 -3.72476,-19.33928 -10.54863,-21.6058 -2.41865,-0.80335 -7.7004,-0.72516 -13.31749,0.19714 -14.88991,2.44485 -22.45952,-1.30876 -25.52739,-12.6585 -1.10596,-4.09153 -1.08924,-11.63947 0.0373,-16.84453 0.46295,-2.139 0.95677,-4.10937 1.09738,-4.3786 0.14945,-0.28616 0.64654,1.18258 1.19659,3.53553 1.24831,5.34001 3.3384,9.62922 6.229,12.78295 1.2068,1.31667 2.85319,2.77868 3.65864,3.24892 2.11305,1.23365 6.88958,2.52694 14.38442,3.89472 12.34126,2.25222 14.57086,3.05475 17.54632,6.31566 2.20437,2.41584 3.27239,4.43036 4.99721,9.42583 0.77212,2.23622 1.80935,4.97781 2.30495,6.09242 1.47988,3.32825 4.95907,8.38314 9.47396,13.76464 2.33873,2.78765 5.20494,6.50034 6.36935,8.25043 4.4694,6.71743 8.83773,17.23097 10.58155,25.46728 0.84313,3.98218 1.26347,11.98976 0.78817,15.01458 l -0.30555,1.94455 z"
       id="path25"
       transform="scale(0.26458333)" /><path
       style="fill:#37246b;fill-opacity:1;stroke-width:3.50636"
       d="m 202.47054,415.14852 c -4.2247,-3.39054 -14.18173,-12.88642 -15.20751,-14.50318 -0.57939,-0.91319 -1.22598,-2.29674 -1.43688,-3.07455 -0.59385,-2.1902 -0.45811,-7.47104 0.30709,-11.94698 0.9115,-5.3317 1.55181,-6.90871 3.06123,-7.53938 2.7,-1.12813 3.69395,-0.43456 4.30359,3.00303 0.80372,4.53201 5.1794,12.02447 10.86531,18.60465 l 3.05504,3.53553 -0.22458,3.0052 c -0.46949,6.28267 -1.335,10.60661 -2.12307,10.60661 -0.27131,0 -1.44141,-0.76092 -2.60022,-1.69093 z"
       id="path26"
       transform="scale(0.26458333)" /><path
       style="fill:#37246b;fill-opacity:1;stroke-width:3.50636"
       d="m 191.56375,364.01362 c -2.6788,-0.52835 -3.11248,-0.87012 -3.60971,-2.84479 -0.46407,-1.843 -3.29587,-4.96666 -4.86271,-5.36388 -0.60475,-0.15331 -2.85915,0.056 -5.60753,0.52059 -6.23799,1.05453 -7.36809,1.02587 -8.23909,-0.20889 -2.10871,-2.9894 -4.46462,-9.04219 -3.91742,-10.06465 0.19137,-0.35758 0.48281,-0.5668 0.64763,-0.46493 0.51562,0.31867 5.18504,0.85279 13.98376,1.59955 9.9645,0.84571 13.82424,1.47941 16.31545,2.67869 1.91896,0.9238 2.9532,2.38418 2.9532,4.16998 0,1.52949 -1.62859,6.13361 -2.83417,8.01234 -0.96178,1.49881 -2.08051,2.57207 -2.53427,2.43128 -0.0614,-0.019 -1.09421,-0.22843 -2.29514,-0.46529 z"
       id="path27"
       transform="scale(0.26458333)" /><path
       style="fill:#37246b;fill-opacity:1;stroke-width:3.50636"
       d="m 154.35982,352.92444 c -1.78788,-1.87945 -3.77948,-5.92538 -4.47639,-9.09377 -0.63383,-2.88162 -1.15625,-16.79378 -0.63062,-16.79378 0.18222,0 0.78242,1.39211 1.33378,3.09359 1.33775,4.12821 2.96597,7.29647 5.14531,10.01198 0.98937,1.23278 1.89552,2.62657 2.01367,3.09732 0.53081,2.11492 -0.53197,9.5957 -1.51241,10.64566 -0.40836,0.43731 -0.67163,0.30226 -1.87334,-0.961 z"
       id="path28"
       transform="scale(0.26458333)" /><path
       style="fill:#37246b;fill-opacity:1;stroke-width:7.01272"
       d="m 258.32277,395.46667 c -8.28142,-9.60105 -21.79555,-38.65054 -21.79555,-46.85093 0,-3.02304 0.74023,-3.86196 4.19454,-4.75381 1.33473,-0.34461 2.54505,-0.98138 2.68961,-1.41505 0.78412,-2.35238 -12.93283,-9.70183 -20.31918,-10.88688 -5.6815,-0.91153 -11.63118,-0.25447 -14.69509,1.62285 l -2.32072,1.42197 -6.51811,-1.83835 c -3.58497,-1.01109 -12.00788,-2.94182 -18.7176,-4.29051 -19.13061,-3.84536 -26.63886,-7.0845 -36.25306,-15.63999 -15.79129,-14.05235 -24.0981,-27.87599 -33.7795,-56.21362 -4.80864,-14.07497 -5.55301,-16.91315 -4.43583,-16.91315 0.42471,0 5.30251,4.26229 10.83957,9.47175 16.92675,15.92531 21.47252,19.2828 40.6854,30.05016 6.33939,3.55273 14.5665,8.37496 18.28248,10.71604 10.76558,6.78237 14.38555,8.32254 14.38555,6.12054 0,-1.90172 -4.45227,-5.5733 -35.35534,-29.15585 -33.63315,-25.66592 -37.58308,-29.22077 -46.82027,-42.13732 -7.54603,-10.55177 -11.654141,-21.02687 -13.63185,-34.75928 -1.374566,-9.54444 -2.216548,-25.26476 -1.352071,-25.24402 0.351699,0.008 2.230443,3.42531 4.174986,7.59303 1.944544,4.16772 5.086515,9.96793 6.982165,12.88935 3.8232,5.89203 12.18088,14.44395 16.24623,16.62382 3.68557,1.97622 4.17705,0.99564 3.72048,-7.42306 -0.59545,-10.97978 -2.92813,-20.24656 -9.96777,-39.59798 -4.9565,-13.62502 -6.16861,-19.19746 -6.15235,-28.28427 0.0124,-6.90517 1.57536,-17.30081 2.97681,-19.79899 0.74386,-1.32597 0.74285,-1.32886 2.83485,8.13173 2.19983,9.94824 4.86908,17.08789 8.85122,23.6751 3.82586,6.32869 9.19972,13.44801 10.15094,13.44801 0.88085,0 1.30942,-2.08665 2.93655,-14.29771 1.82122,-13.66755 2.76105,-17.9006 7.26564,-32.72489 l 3.65271,-12.020819 -0.0853,-11.667261 c -0.0613,-8.385653 -0.48901,-13.855001 -1.52053,-19.445437 -0.78936,-4.277996 -1.29761,-7.920956 -1.12944,-8.095466 0.57936,-0.601219 4.4324,3.862219 6.9106,8.005378 5.00117,8.361172 7.72263,20.107372 8.53996,36.859641 0.24667,5.055814 0.76536,9.510584 1.15264,9.899494 0.88004,0.88375 2.01575,-0.58443 7.83962,-10.134561 8.45924,-13.871685 13.85464,-21.701844 18.2478,-26.482363 5.13665,-5.589585 14.764,-12.182537 22.51212,-15.416644 6.80152,-2.838988 23.468,-5.938456 23.43493,-4.358197 -0.006,0.291681 -3.4067,2.280419 -7.5569,4.419417 -15.97072,8.231265 -23.27047,13.860852 -28.85386,22.252159 -14.80582,22.251789 -21.26281,52.989909 -16.73922,79.686119 2.52523,14.90279 4.98253,25.5497 6.16549,26.71369 1.01533,0.99905 1.22051,0.96986 2.19394,-0.31209 0.59061,-0.77781 1.91866,-3.0052 2.95121,-4.94974 l 1.87738,-3.53554 0.44503,7.77818 c 0.92019,16.08275 3.90432,21.27492 24.9936,43.48706 12.62847,13.30085 15.45261,17.31167 16.64707,23.64205 0.48358,2.56288 1.21878,4.86962 1.63378,5.12611 1.31561,0.8131 6.75353,-5.96609 7.91031,-9.86139 2.01919,-6.79936 0.77184,-13.6019 -2.5812,-14.07677 -1.49251,-0.21137 -1.68483,-0.67477 -2.00446,-4.83 l -0.35355,-4.59619 -3.0166,3.18198 -3.01659,3.18198 0.4525,-2.47487 c 0.24886,-1.36118 1.379,-4.83413 2.51141,-7.71766 2.50603,-6.38125 1.88521,-7.58697 -2.06768,-4.01576 -1.54694,1.39757 -2.99555,2.54103 -3.21914,2.54103 -0.72432,0 1.72027,-7.32593 3.65032,-10.93928 2.59316,-4.85476 9.94536,-12.48131 15.75675,-16.34471 4.51498,-3.00155 15.06191,-8.07135 16.79119,-8.07135 1.31198,0 3.00668,4.21554 2.78036,6.9161 -0.18715,2.23309 -0.74025,2.95325 -4.02932,5.24631 -3.9295,2.73957 -6.2095,5.27501 -5.43764,6.04688 0.24209,0.24208 2.44377,-0.63036 4.89261,-1.93876 2.67216,-1.4277 4.92824,-2.19633 5.64237,-1.92229 1.8388,0.70562 1.47018,4.63705 -0.9314,9.93361 -2.46128,5.42824 -2.80799,11.02996 -1.02303,16.52885 1.77406,5.46534 9.31614,20.28053 11.24853,22.09591 l 1.77888,1.67119 3.84966,-3.12075 c 9.15103,-7.41834 26.12123,-22.97164 29.84333,-27.35163 9.08905,-10.69552 18.56585,-27.24227 22.76591,-39.74991 l 2.01414,-5.99805 0.4421,6.26459 c 0.24315,3.44552 0.64487,6.46284 0.89271,6.70515 1.17723,1.15097 11.04158,-13.69358 14.48333,-21.79552 2.81396,-6.62411 4.21411,-14.34895 4.21411,-23.24987 0,-13.66405 -3.11689,-26.0361 -10.27399,-40.781071 -9.06675,-18.679221 -18.31139,-28.216272 -38.3479,-39.560877 -7.80381,-4.418487 -10.76711,-6.734508 -7.41632,-5.796353 21.17536,5.928686 27.74977,8.612156 35.53361,14.503739 5.87467,4.446517 20.30452,19.251653 29.26727,30.028426 4.1989,5.048736 7.21502,8.111186 7.60469,7.721516 0.38967,-0.38967 0.21923,-4.26915 -0.42974,-9.781537 -2.71238,-23.039087 -0.72376,-33.784677 7.88822,-42.624483 3.57054,-3.664982 4.47763,-4.307185 4.13465,-2.927246 -2.33431,9.391845 -2.62215,12.063662 -2.2853,21.213204 0.41828,11.361511 2.26162,18.796683 9.02829,36.416002 7.04337,18.33977 9.06366,24.49793 9.51114,28.99137 0.87387,8.77492 1.85355,9.41534 6.57217,4.29624 5.12284,-5.55761 9.32945,-15.21679 12.8025,-29.39696 0.99995,-4.08268 2.13089,-7.42376 2.5132,-7.42462 1.17152,-0.003 1.69641,5.13912 1.73901,17.03507 0.0466,13.00086 0.0435,13.01351 -6.99044,29.18715 -6.87667,15.81198 -11.35359,31.22002 -11.35359,39.0752 0,1.74379 0.2731,2.02751 1.94455,2.02018 2.2748,-0.01 6.72072,-2.42098 11.13624,-6.03916 4.11972,-3.3758 9.85588,-11.01325 14.84219,-19.76172 2.21664,-3.88908 4.33961,-7.38926 4.71771,-7.77817 1.05908,-1.08935 -0.0425,15.93676 -1.50973,23.33452 -3.48998,17.59649 -13.20573,32.73849 -33.96449,52.93365 -20.50833,19.95153 -53.09534,46.75047 -74.41788,61.19983 -4.18077,2.83313 -7.6014,5.43849 -7.6014,5.78969 0,2.34267 11.28716,-1.54202 26.09494,-8.98109 23.21013,-11.6602 42.33341,-25.14096 63.53085,-44.7854 5.71341,-5.29483 10.07627,-8.85439 10.07627,-8.221 0,0.61438 -0.46747,4.22942 -1.03883,8.03344 -4.03407,26.85838 -11.46964,43.28554 -25.73929,56.86497 -7.43799,7.07821 -13.78896,11.45269 -22.84666,15.73652 -8.96045,4.23784 -16.25993,6.23173 -36.8967,10.0785 -15.48048,2.88561 -17.84359,3.16931 -19.79899,2.37691 -4.78671,-1.93975 -8.36315,-2.36544 -13.18406,-1.56928 -8.55052,1.41208 -20.65457,6.12807 -25.41751,9.90318 -2.10658,1.66968 -1.4518,2.77445 2.77368,4.67988 1.54916,0.69858 2.99405,1.82905 3.21086,2.51217 1.3178,4.15202 -6.02765,21.70767 -14.18943,33.9128 -3.79855,5.68035 -11.22254,14.97469 -12.2984,15.39678 -0.27194,0.10669 -0.98143,-0.37061 -1.57663,-1.06066 z m -38.92248,-72.49565 c -0.4467,-1.43989 -4.4488,-3.0637 -17.16775,-6.96563 -24.61715,-7.55206 -31.28906,-11.27035 -48.16723,-26.84382 -6.53133,-6.02646 -9.46197,-8.09809 -9.46197,-6.68856 0,0.18558 0.80286,2.47042 1.78413,5.07743 0.98128,2.607 1.69644,5.00309 1.58926,5.32463 -0.36261,1.08783 -7.93962,-4.5717 -13.11107,-9.79311 -2.82782,-2.85513 -6.62439,-7.48348 -8.43682,-10.28521 -1.81243,-2.80174 -3.42273,-4.71186 -3.57845,-4.24472 -0.7637,2.29111 4.60736,14.30307 10.53016,23.54986 5.68937,8.88234 14.0665,15.86243 26.42558,22.01861 9.55603,4.75994 13.9821,5.67579 35.32937,7.31039 8.1528,0.62427 16.10775,1.39019 17.67767,1.70205 4.51531,0.89695 6.89746,0.83839 6.58712,-0.16192 z m 91.01959,0.19265 c 2.33345,-0.37432 11.24299,-1.17915 19.79899,-1.78853 24.09815,-1.71632 28.14582,-2.6073 41.01219,-9.02771 17.7577,-8.8612 24.99267,-16.15285 33.60656,-33.86977 2.10027,-4.31984 3.53737,-8.18447 3.40034,-9.1442 -0.21081,-1.47636 -0.54756,-1.22911 -3.0116,2.2112 -3.66231,5.11333 -9.51012,11.19856 -15.22185,15.83983 -4.37827,3.55773 -9.07124,6.45679 -9.59856,5.92948 -0.13179,-0.13179 0.68437,-2.30309 1.81368,-4.82511 4.0262,-8.99142 3.80842,-8.92221 -11.48331,3.6495 -11.54969,9.49528 -21.58902,15.59994 -30.61796,18.61799 -1.94454,0.65 -9.82374,2.90776 -17.50931,5.01726 -14.30822,3.92725 -18.94029,5.64178 -19.44492,7.19741 -0.34706,1.06988 1.48395,1.1185 7.25575,0.19265 z m -83.81421,-28.7791 c 0.51851,-17.14843 0.66504,-18.57882 2.4084,-23.50975 4.20227,-11.88575 1.34194,-18.11091 -15.18403,-33.04623 -4.66495,-4.21593 -10.21686,-9.83911 -12.33758,-12.49593 -3.53894,-4.43358 -11.60297,-19.31214 -13.66975,-25.22144 -0.81006,-2.31611 -0.91837,-2.38415 -1.68826,-1.06066 -1.20339,2.06869 -1.51054,14.74654 -0.55616,22.95589 0.72909,6.27135 1.33302,9.22548 3.3285,16.28135 0.42226,1.49306 -0.13916,1.19152 -3.69477,-1.98448 -3.71007,-3.31397 -4.21899,-3.57541 -4.42122,-2.27124 -0.28651,1.84774 3.35746,12.8999 7.46712,22.64768 4.66937,11.0754 4.51625,10.6066 3.46418,10.6066 -0.51123,0 -2.76234,-2.54558 -5.00247,-5.65685 -6.20005,-8.61111 -7.72584,-7.33265 -4.00528,3.35601 4.49793,12.92195 13.14923,24.26454 28.00347,36.71496 6.89291,5.77744 14.66803,11.61118 15.01406,11.26516 0.17693,-0.17694 0.57014,-8.53842 0.87379,-18.58107 z m 76.1385,13.47493 c 11.72188,-8.38791 25.46673,-21.36255 30.72129,-28.99979 4.56669,-6.63746 9.46274,-19.3739 8.99876,-23.4091 -0.20936,-1.82087 -0.51691,-1.56968 -4.55127,3.7173 -4.69768,6.15625 -6.63342,8.12552 -6.63342,6.74831 0,-0.45991 1.7634,-4.9657 3.91868,-10.01286 4.59033,-10.74952 8.24654,-21.57412 7.95449,-23.55009 -0.17293,-1.17005 -0.91385,-0.73691 -4.62533,2.70396 -2.43068,2.25345 -4.41942,3.93734 -4.41942,3.74196 0,-0.19538 0.61722,-2.37749 1.37159,-4.84914 0.75437,-2.47165 1.74119,-7.19858 2.19292,-10.50431 0.99878,-7.30889 1.27063,-24.73162 0.40681,-26.07163 -0.44452,-0.68957 -2.17924,2.06627 -6.01041,9.54835 -7.98432,15.593 -10.09043,18.29912 -22.78995,29.28256 -10.53465,9.11111 -17.3808,16.24819 -18.76602,19.56349 -0.93078,2.22766 -0.84717,2.81268 1.22124,8.5456 4.47987,12.4167 5.08047,15.39147 5.16845,25.59967 0.0452,5.25027 -0.19401,12.33017 -0.5317,15.73312 -0.40794,4.11105 -0.37356,6.18719 0.10247,6.18719 0.39403,0 3.2159,-1.78857 6.27082,-3.97459 z M 164.23561,254.38166 c -18.98421,-29.14091 -23.64737,-37.395 -27.46432,-48.61359 -1.25704,-3.69463 -2.50544,-6.97059 -2.77422,-7.2799 -0.26879,-0.3093 -0.67822,4.11508 -0.90985,9.83196 -0.441,10.88427 -0.80233,11.97747 -3.68668,11.15408 -4.2207,-1.20486 -11.5564,-7.5 -22.56358,-19.36299 -6.75274,-7.27777 -7.684369,-6.52369 -3.28013,2.65499 7.277,15.16568 16.20048,23.53953 47.92675,44.97484 6.70095,4.52738 12.54467,8.2316 12.98603,8.2316 0.52922,0 0.44955,-0.54173 -0.234,-1.59099 z m 210.75557,-8.13172 c 18.77788,-13.68474 31.91938,-24.12125 38.02198,-30.19568 9.08129,-9.03937 16.99949,-21.31775 16.40922,-25.44497 -0.16673,-1.16572 -2.33614,0.6851 -10.81517,9.22688 -10.83254,10.91273 -17.76514,16.35615 -19.82439,15.56594 -0.66774,-0.25623 -0.98903,-0.94411 -0.78265,-1.6756 0.95283,-3.37711 2.64765,-15.87132 2.43601,-17.95816 -0.237,-2.3368 -0.26311,-2.31267 -1.63842,1.51444 -4.13437,11.50476 -14.32328,29.10481 -25.27698,43.66276 -7.25674,9.64454 -8.49564,11.49157 -7.70797,11.49157 0.37866,0 4.50892,-2.78423 9.17837,-6.18718 z m 7.03182,-37.11438 c 5.49267,-6.37 10.92174,-17.03255 12.87583,-25.2878 1.657,-7.00009 2.58186,-20.34741 1.51748,-21.89983 -0.39224,-0.5721 -0.83801,-0.8903 -0.99058,-0.70711 -0.15258,0.18319 -1.31424,1.86688 -2.58149,3.74153 -1.26723,1.87465 -2.45943,3.25309 -2.64931,3.0632 -0.18989,-0.18988 0.31808,-3.59764 1.12882,-7.57277 2.54977,-12.5018 1.67603,-16.6213 -2.2629,-10.66918 -5.11298,7.72622 -13.2336,26.88517 -13.2336,31.22196 0,1.41638 0.24404,1.5196 2.56376,1.08442 2.50799,-0.47051 2.55333,-0.43945 2.0847,1.42774 -0.26348,1.04978 -1.76348,4.915 -3.33334,8.58936 -1.56987,3.67436 -2.69683,6.83813 -2.50436,7.0306 0.19246,0.19246 2.10838,-2.02784 4.25759,-4.93402 4.35641,-5.89074 5.41693,-6.84877 5.41693,-4.89342 0,2.01097 -3.70319,12.47162 -6.9787,19.71321 -1.60643,3.55154 -2.92079,6.67202 -2.92079,6.93438 0,1.08247 3.45632,-2.02517 7.60996,-6.84227 z m -227.4419,-4.25137 c 0.18796,-2.1226 -0.32631,-4.76435 -1.88685,-9.69239 -0.91837,-2.90014 -1.57098,-5.37175 -1.45025,-5.49248 0.12073,-0.12073 1.65699,1.21796 3.4139,2.97487 3.52768,3.52769 5.93573,4.28434 5.10277,1.6034 -0.27187,-0.87505 -1.74531,-4.08996 -3.27431,-7.14424 -2.87152,-5.73607 -3.04343,-7.29239 -0.55694,-5.04215 1.94916,1.76396 3.14005,0.52336 2.54458,-2.65078 -0.48987,-2.61122 -10.70708,-23.63795 -13.14835,-27.05891 l -1.51381,-2.12132 0.21921,11.13693 c 0.12057,6.12531 0.0856,11.13693 -0.0778,11.13693 -0.16335,0 -1.96143,-1.78843 -3.99573,-3.9743 -2.38199,-2.55947 -4.01011,-3.78187 -4.57341,-3.43373 -1.41196,0.87264 -0.43429,13.25728 1.43907,18.22936 1.91317,5.07776 7.14671,12.96792 12.16946,18.34683 3.71431,3.9777 5.43143,4.9554 5.58847,3.18198 z m 106.99508,-14.05165 c -0.63402,-1.02585 -1.88295,-0.70902 -3.61341,0.91665 -2.77237,2.60451 -1.97886,3.65886 1.18027,1.56826 1.54925,-1.02525 2.64417,-2.14346 2.43314,-2.48491 z m -90.73973,-25.10702 c -1.16344,-4.61684 -2.46572,-10.59807 -2.89396,-13.29162 -1.24824,-7.8512 -0.9696,-21.67478 0.60681,-30.10443 0.76366,-4.08354 1.25192,-7.56197 1.08503,-7.72984 -0.90214,-0.90743 -5.64025,5.32185 -8.46585,11.1302 -1.79258,3.68487 -3.51089,6.39311 -3.84067,6.05334 -0.32823,-0.33817 -1.27661,-4.91054 -2.10752,-10.1608 -0.8309,-5.25027 -1.67729,-10.34144 -1.88086,-11.31371 l -0.37012,-1.76777 -1.30901,1.61308 c -3.2024,3.94627 -3.63116,17.35959 -0.80577,25.20784 0.83032,2.30644 3.70163,7.8749 6.38068,12.37437 2.67906,4.49948 6.87031,11.99924 9.31391,16.66615 6.87423,13.12878 7.29505,13.25867 4.28733,1.32319 z m 201.84071,-5.86411 c 2.2152,-4.11394 6.19941,-10.82105 8.8538,-14.90468 5.69736,-8.76507 7.31394,-12.24211 8.47652,-18.2318 1.1336,-5.84043 0.55555,-16.04565 -1.08902,-19.22588 -1.16079,-2.24471 -1.31052,-2.3212 -2.18984,-1.11867 -0.51912,0.70994 -1.13396,2.75928 -1.36631,4.55408 -1.27898,9.8795 -4.06594,20.63497 -4.78493,18.46608 -3.23028,-9.74425 -9.61067,-19.41679 -11.53724,-17.49022 -0.27004,0.27004 0.0668,3.12257 0.74856,6.33895 1.61453,7.61707 2.2469,24.6021 1.13305,30.43288 -0.46298,2.42356 -1.93512,8.13793 -3.27144,12.69861 -1.33631,4.56068 -2.41822,8.69726 -2.40423,9.19239 0.0462,1.63373 3.34061,-3.11517 7.43108,-10.71174 z"
       id="path29"
       transform="scale(0.26458333)" /><path
       style="fill:#0b6666;fill-opacity:1;stroke-width:3.50636"
       d="m 150.95429,201.48027 c -4.1017,-4.3749 -8.85152,-10.9909 -11.09406,-15.45286 -2.35954,-4.69476 -3.24258,-8.45494 -3.74998,-15.96823 l -0.22683,-3.35876 1.30716,1.23744 c 0.71893,0.68059 2.41912,2.66933 3.7782,4.41942 1.35908,1.75009 2.67939,3.30156 2.93403,3.44771 0.81543,0.46802 1.55837,-0.12097 1.80398,-1.43016 0.23402,-1.24746 -0.0243,-10.26236 -0.41301,-14.41274 -0.25214,-2.69226 0.23043,-3.55649 1.27161,-2.27728 0.75511,0.92773 7.5837,14.58697 9.51073,19.0243 1.55161,3.57287 1.38785,3.89853 -1.18052,2.34762 -2.69589,-1.62792 -3.18046,-1.45047 -2.96999,1.08761 0.12411,1.49658 0.74537,3.12901 2.70686,7.11258 1.40018,2.84361 2.49303,5.22295 2.42856,5.28743 -0.0645,0.0645 -1.68069,-1.55703 -3.59157,-3.60335 -3.43445,-3.67786 -4.9902,-5.02115 -5.37251,-4.63884 -0.3472,0.3472 0.60245,4.14713 2.75179,11.01109 1.15262,3.68089 2.04856,7.00165 1.991,7.37947 -0.0858,0.5632 -0.42543,0.34482 -1.88545,-1.21245 z"
       id="path30"
       transform="scale(0.26458333)" /><path
       style="fill:#0b6666;fill-opacity:1;stroke-width:3.50636"
       d="m 157.29753,250.07909 c -17.15783,-11.59548 -29.54963,-20.67751 -36.20549,-26.53524 -6.76442,-5.95326 -10.09517,-9.95881 -14.29477,-17.19086 -2.1773,-3.74949 -2.80875,-5.53466 -1.9577,-5.53466 0.2005,0 3.47586,3.02504 7.27858,6.72231 9.89968,9.62519 15.03329,13.41453 18.18852,13.42575 1.61859,0.006 3.00933,-1.38716 3.71022,-3.71602 0.54535,-1.81206 0.64589,-7.16175 0.1942,-10.33325 -0.1454,-1.02088 -0.16723,-1.85615 -0.0485,-1.85615 0.11871,0 0.82919,1.47166 1.57883,3.27036 4.06721,9.75884 10.14003,20.62118 19.38115,34.66666 3.30112,5.01733 5.92885,9.1956 5.83941,9.28504 -0.0894,0.0894 -1.73844,-0.90233 -3.66443,-2.20394 z"
       id="path31"
       transform="scale(0.26458333)" /><path
       style="fill:#0b6666;fill-opacity:1;stroke-width:3.50636"
       d="m 218.93778,306.64631 c -15.26694,-12.29837 -23.52124,-20.78347 -28.71979,-29.52283 -2.70639,-4.54975 -7.34264,-15.16974 -6.84134,-15.67104 0.42441,-0.42441 1.33459,0.32382 3.32994,2.73747 4.97239,6.0148 7.07461,8.0462 8.32672,8.0462 1.3014,0 1.03165,-0.81497 -4.92504,-14.87921 -2.8229,-6.66511 -7.94292,-20.38424 -7.78172,-20.85118 0.0589,-0.17048 1.61844,1.05974 3.46576,2.7338 3.98891,3.61481 6.53586,5.58759 7.86656,6.09318 1.34771,0.51205 1.25699,0.0603 -0.51059,-2.5426 -4.29285,-6.32151 -6.55487,-16.86251 -6.90146,-32.16067 -0.10903,-4.81274 -0.11447,-8.75044 -0.0121,-8.75044 0.10239,0 2.18197,4.01725 4.62128,8.92722 3.14965,6.33976 5.09689,9.79825 6.71833,11.93243 1.25576,1.65286 5.81213,6.50538 10.12526,10.78337 10.07816,9.99608 17.23389,17.62342 18.92756,20.17505 1.79242,2.7004 2.98899,6.18909 2.99829,8.74176 0.006,1.55554 -0.45502,3.42225 -1.91957,7.77817 -1.24152,3.6926 -2.05256,6.80046 -2.27994,8.73663 -0.1941,1.65287 -0.4489,8.95309 -0.56622,16.22272 -0.21238,13.16069 -0.33919,15.24354 -0.92801,15.24354 -0.17023,0 -2.41751,-1.69811 -4.99395,-3.77357 z"
       id="path32"
       transform="scale(0.26458333)" /><path
       style="fill:#0b6666;fill-opacity:1;stroke-width:3.50636"
       d="m 167.05398,162.62448 c 0,-1.01806 -1.6536,-4.16774 -5.86255,-11.16667 -10.15804,-16.89151 -12.24297,-23.83373 -10.53326,-35.0728 0.31611,-2.07804 0.68033,-3.89587 0.80937,-4.03962 0.12904,-0.14375 0.76162,2.64049 1.40574,6.18719 2.01829,11.11327 3.81904,17.07718 5.46,18.08298 0.87819,0.53827 1.64963,-0.56962 1.64963,-2.36908 0,-3.60896 5.6966,-16.15643 7.33623,-16.15896 0.54668,-8.5e-4 0.5979,-0.56919 -0.44979,4.99021 -1.14565,6.07924 -1.62426,15.10886 -1.20324,22.70112 0.33118,5.97239 0.51302,7.34324 1.73875,13.10864 0.40935,1.92543 0.66195,3.71529 0.56134,3.97748 -0.28087,0.73193 -0.91222,0.56548 -0.91222,-0.24049 z"
       id="path33"
       transform="scale(0.26458333)" /><path
       style="fill:#0b6666;fill-opacity:1;stroke-width:3.50636"
       d="m 272.76644,189.81723 c 0,-2.48454 -0.18586,-4.09977 -0.60876,-5.29047 l -0.60876,-1.71401 1.02817,-1.07318 c 1.91817,-2.00214 9.9786,-4.5136 13.27083,-4.13491 1.59373,0.18332 7.77926,2.57586 7.77693,3.00809 -6.8e-4,0.1264 -1.67176,0.68335 -3.71352,1.23768 -7.28925,1.979 -14.06993,6.16016 -15.70984,9.68712 -0.47468,1.02088 -0.99175,1.85615 -1.14905,1.85615 -0.1573,0 -0.286,-1.60941 -0.286,-3.57647 z"
       id="path34"
       transform="scale(0.26458333)" /><path
       style="fill:#0b6666;fill-opacity:1;stroke-width:0.87659"
       d="m 274.34711,197.84765 c -0.10284,-0.40972 0.0371,-1.4232 0.3029,-2.19447 1.0144,-2.94295 4.20913,-6.1246 8.54912,-8.51411 1.4781,-0.81381 3.62243,-1.87709 3.78554,-1.87709 0.0797,0 0.14488,0.0392 0.14488,0.0872 0,0.0479 -0.67482,0.62645 -1.49959,1.28555 -4.16004,3.32445 -8.14173,7.38424 -9.96645,10.16195 -0.31936,0.48613 -0.66131,0.97337 -0.7599,1.08275 -0.2431,0.26972 -0.48429,0.25595 -0.5565,-0.0318 z"
       id="path35"
       transform="scale(0.26458333)" /><path
       style="fill:#0b6666;fill-opacity:1;stroke-width:2.47937"
       d="m 297.63003,307.9375 c 0.003,-0.85938 0.11199,-2.29375 0.24273,-3.1875 0.50981,-3.48507 0.79921,-14.76334 0.52032,-20.27769 -0.32235,-6.37374 -0.69915,-8.27342 -2.65555,-13.38835 -4.108,-10.74019 -3.96406,-10.28466 -3.97626,-12.58396 -0.0112,-2.1106 -0.003,-2.13694 1.13797,-3.88616 2.42732,-3.71974 7.22684,-8.4338 17.60076,-17.28735 6.42279,-5.48149 9.05898,-7.96566 11.59424,-10.92565 3.9713,-4.63661 5.77948,-7.5398 11.30483,-18.15084 2.38185,-4.57418 3.87601,-7.19327 3.93434,-6.89646 0.13805,0.70235 -0.43176,15.04244 -0.73098,18.39646 -0.82654,9.2647 -2.63318,15.88785 -5.63734,20.66642 -2.15919,3.43453 -2.43795,4.08358 -1.75385,4.08358 0.60482,0 3.30746,-1.90886 6.45319,-4.55784 3.34573,-2.81741 5.15426,-4.19216 5.51493,-4.19216 0.29842,0 0.17481,0.40747 -1.4788,4.875 -2.02658,5.47514 -5.726,14.15499 -8.59311,20.16176 -3.66331,7.67488 -4.44911,10.46324 -2.94868,10.46324 1.29745,0 5.86104,-4.41718 10.20232,-9.875 1.42182,-1.7875 2.67995,-3.28695 2.79584,-3.33211 0.11589,-0.0452 -0.28494,1.31512 -0.89074,3.02284 -3.93973,11.10585 -9.21106,19.60814 -16.85529,27.18642 -6.93888,6.87901 -24.22678,21.24785 -25.56439,21.24785 -0.12183,0 -0.21925,-0.70313 -0.21648,-1.5625 z"
       id="path36"
       transform="scale(0.26458333)" /><path
       style="fill:#0b6666;fill-opacity:1;stroke-width:2.47937"
       d="m 372.125,245.87984 c 0,-0.23824 0.46792,-0.89621 4.92307,-6.92263 5.96214,-8.06488 10.74497,-15.59574 17.32693,-27.28235 1.44375,-2.56345 2.68625,-4.66398 2.76111,-4.66784 0.0749,-0.004 0.0896,2.05847 0.0327,4.58296 -0.10321,4.58341 -0.10252,4.59057 0.48202,5 1.68897,1.183 5.00647,-0.11704 9.64321,-3.77893 2.57159,-2.03092 11.64219,-10.89555 17.42428,-17.0286 1.47393,-1.5634 2.723,-2.79942 2.77571,-2.74672 0.18365,0.18366 -4.16649,8.10733 -5.79783,10.56061 -5.64474,8.48873 -14.46689,16.53601 -34.86719,31.80469 -10.80651,8.08816 -14.70405,10.86574 -14.70405,10.47881 z"
       id="path37"
       transform="scale(0.26458333)" /><path
       style="fill:#0b6666;fill-opacity:1;stroke-width:2.47937"
       d="m 310.26422,320.89605 c 0.42032,-0.19695 5.53907,-1.66423 11.375,-3.26063 16.1986,-4.43107 20.24958,-5.78712 26.92998,-9.01472 7.89943,-3.81658 15.13813,-8.74766 28.3683,-19.32483 3.12812,-2.50085 5.6875,-4.47215 5.6875,-4.38067 0,0.0915 -0.83741,1.69486 -1.86092,3.56307 -3.61783,6.60363 -3.97133,7.77173 -2.35198,7.77173 2.21202,0 12.12137,-6.63606 18.17857,-12.17375 1.14987,-1.05125 3.32569,-3.27034 4.83516,-4.93131 1.50947,-1.66097 2.85313,-3.05955 2.9859,-3.10796 0.30022,-0.10947 -3.09302,6.45958 -5.09705,9.86748 -4.62442,7.86395 -12.59032,15.89517 -20.91521,21.08671 -4.66268,2.90772 -12.98907,6.8854 -17.75751,8.48312 -7.38189,2.47337 -12.99561,3.25475 -30.76696,4.28247 -4.88125,0.28229 -10.73125,0.67464 -13,0.8719 -7.98734,0.69447 -7.47833,0.67389 -6.61078,0.26739 z"
       id="path38"
       transform="scale(0.26458333)" /><path
       style="fill:#0b6666;fill-opacity:1;stroke-width:2.47937"
       d="m 370.47846,157.8125 c 0.0754,-0.24063 0.57927,-2.18125 1.11963,-4.3125 1.37421,-5.42006 1.62433,-8.6419 1.45268,-18.7126 -0.14412,-8.45626 -0.46888,-12.03378 -1.43691,-15.82905 C 371.0951,116.92447 370.97083,115 371.35826,115 c 0.4127,0 1.99337,2.12842 3.27343,4.40778 1.69717,3.02209 3.35058,7.01009 4.14128,9.98869 1.14769,4.32344 1.77639,4.83967 3.0946,2.54103 1.89222,-3.29959 4.70796,-14.76688 5.40899,-22.02846 0.159,-1.64698 0.35806,-1.60084 0.93156,0.21596 0.93762,2.97026 1.22573,11.58312 0.53082,15.86813 -0.86916,5.35944 -2.54995,8.98735 -7.76337,16.75687 -2.07593,3.09375 -4.93349,7.48125 -6.35013,9.75 -1.41664,2.26875 -2.85337,4.49062 -3.19275,4.9375 -0.66794,0.87952 -1.17485,1.07873 -0.95423,0.375 z"
       id="path39"
       transform="scale(0.26458333)" /><path
       style="fill:#0b6666;fill-opacity:1;stroke-width:2.47937"
       d="m 379.12872,209.95945 c -0.002,-0.091 0.83055,-2.2848 1.85022,-4.875 2.84746,-7.23321 5.14606,-15.14517 5.14606,-17.71312 0,-1.09494 -0.59493,-2.57752 -1.11427,-2.77681 -0.79445,-0.30486 -1.65852,0.18604 -2.57645,1.46373 -0.5888,0.81957 -0.95868,1.15452 -1.00564,0.91068 -0.0408,-0.21214 0.2058,-1.57104 0.54811,-3.01977 0.34232,-1.44873 0.69286,-3.18308 0.77899,-3.85411 0.32085,-2.49965 -1.04599,-2.72622 -3.49866,-0.57994 -0.77615,0.67919 -1.51713,1.23489 -1.64663,1.23489 -0.76081,0 0.19479,-3.18053 3.30498,-11 3.56601,-8.96546 10.29421,-21.72696 11.06056,-20.97879 0.0824,0.0804 -0.18534,1.72708 -0.59491,3.65926 -1.74672,8.24026 -3.75608,20.50578 -3.75608,22.92784 0,0.6117 0.10869,1.17935 0.24153,1.26146 0.43507,0.26889 1.75404,-1.90802 4.46529,-7.36977 L 395,163.875 l 0.125,2.625 c 0.29542,6.20393 -0.4449,12.30669 -2.28462,18.833 -2.28376,8.10147 -5.86618,15.37825 -10.11302,20.542 -2.50643,3.04757 -3.5942,4.28219 -3.59864,4.08445 z"
       id="path40"
       transform="scale(0.26458333)" /><path
       style="fill:#0b6666;fill-opacity:1;stroke-width:1.75318"
       d="m 210.80621,321.25675 c -0.3403,-0.0367 -2.13033,-0.26225 -3.97786,-0.50125 -5.17259,-0.66916 -8.78419,-0.94096 -15.17094,-1.14175 -7.96973,-0.25056 -11.10404,-0.51271 -14.9691,-1.25202 -7.05322,-1.34914 -13.64074,-4.03342 -22.7044,-9.25159 -5.76705,-3.32023 -8.77576,-5.57335 -12.75189,-9.54948 -5.04114,-5.04114 -7.60232,-8.79962 -13.05549,-19.15868 -1.24408,-2.36329 -2.22858,-4.33026 -2.1878,-4.37105 0.0408,-0.0408 1.85351,1.82842 4.02828,4.15379 2.17476,2.32537 4.90378,5.08784 6.06448,6.13881 5.59817,5.06896 12.18546,9.57342 14.13042,9.66253 0.52536,0.0241 0.58355,-0.0243 0.63232,-0.52535 0.0728,-0.74808 -0.45328,-2.23995 -1.98151,-5.61923 -1.58151,-3.49711 -1.77222,-3.97639 -1.63634,-4.11227 0.20773,-0.20773 2.12476,1.37747 6.56934,5.43221 10.11763,9.2302 16.5544,13.89433 24.74874,17.93314 6.02416,2.96918 11.48387,4.9285 22.89258,8.21545 9.38603,2.7042 11.66727,3.46631 11.66727,3.89778 0,0.1661 -1.01157,0.18765 -2.2981,0.049 z"
       id="path41"
       transform="scale(0.26458333)" /><path
       style="fill:#0b6666;fill-opacity:1;stroke-width:2.47937"
       d="m 250.23378,442.0661 c -3.37282,-3.67346 -5.5021,-10.51412 -4.86601,-15.6329 0.613,-4.93301 2.43294,-9.08628 6.89431,-15.7334 1.57461,-2.34605 2.86292,-4.32199 2.86292,-4.39097 0,-0.069 -1.04949,-1.26357 -2.33219,-2.65463 -4.20651,-4.56186 -7.9165,-9.40537 -12.66091,-16.5292 -2.73492,-4.10656 -6.14881,-8.70957 -7.19063,-9.69528 -0.44607,-0.42204 -0.88915,-0.63606 -1.12747,-0.54461 -1.03631,0.39767 -1.88365,4.02857 -2.5647,10.98989 -1.26691,12.94947 -1.58671,15.125 -2.22334,15.125 -1.8178,0 -10.75739,-10.74224 -12.58688,-15.125 -1.33418,-3.19618 -1.34026,-4.54383 -0.18594,-41.25 l 0.14938,-4.75 -2.64373,-3.11388 -2.64372,-3.11388 1.56756,-0.71594 c 2.71677,-1.24081 4.22432,-1.51358 7.44257,-1.34664 3.18979,0.16547 6.08948,0.74969 9.56555,1.92724 2.56344,0.86838 10.73549,4.72201 10.6279,5.01171 -0.0377,0.10137 -0.7997,0.7657 -1.69345,1.47628 -2.93739,2.33541 -3.54492,3.86295 -3.00826,7.56387 1.43869,9.92159 7.84826,25.11196 16.35326,38.75641 3.23417,5.18853 7.24382,9.99174 8.92082,10.68638 1.21866,0.50479 1.94405,0.0896 4.73384,-2.70972 5.97227,-5.9926 14.09231,-17.36698 18.23759,-25.54683 2.90735,-5.73706 7.28467,-17.47272 8.03393,-21.53912 0.29992,-1.6277 0.29201,-1.68422 -0.40187,-2.87312 -0.38929,-0.66702 -1.76342,-2.23492 -3.05362,-3.48422 l -2.34582,-2.27146 4.93675,-2.19262 c 8.71173,-3.86927 12.90449,-5.34318 16.70196,-5.87136 3.66002,-0.50906 8.31002,-0.20664 9.10909,0.59242 0.61136,0.61137 0.0238,1.42456 -2.47025,3.41881 -2.55403,2.04222 -4.39055,4.27921 -4.65583,5.6711 -0.22068,1.15787 0.22582,10.31675 1.0169,20.85938 1.0414,13.8785 1.04804,18.25056 0.0349,22.9759 -0.80792,3.76819 -2.87857,7.67513 -6.91846,13.05394 -3.46592,4.61459 -5.29462,6.30887 -5.84618,5.41642 -0.28328,-0.45836 -1.11428,-6.87439 -1.86262,-14.38107 -0.87668,-8.79403 -1.37766,-12.54755 -1.79778,-13.46962 -0.3345,-0.73415 -1.13156,-1.04597 -1.98296,-0.77575 -0.98788,0.31355 -4.07753,3.65519 -7.62357,8.24537 -4.83794,6.26247 -8.93614,11.10916 -13.10629,15.5 -1.95884,2.0625 -3.95912,4.23166 -4.44508,4.82035 -1.06475,1.28986 -1.1582,1.00062 1.86512,5.77268 6.18196,9.75775 7.9287,16.33043 6.18738,23.28197 -0.41846,1.67053 -3.51677,8.42952 -3.75491,8.19137 -0.0732,-0.0732 -0.008,-1.80555 0.14475,-3.84972 0.49178,-6.57931 0.41702,-8.92003 -0.35827,-11.21665 -0.83523,-2.47421 -3.963,-8.53804 -5.85566,-11.3524 -3.19047,-4.7442 -5.08989,-4.84819 -8.41549,-0.4607 -1.88499,2.48687 -3.57758,5.41234 -4.24983,7.3454 -0.90863,2.61278 -1.20431,5.01382 -1.22749,9.9677 -0.023,4.91165 0.19261,6.28311 1.3558,8.625 1.39895,2.81656 1.1682,3.28882 -0.64307,1.3161 z"
       id="path42"
       transform="scale(0.26458333)" /><path
       style="fill:#0b6666;fill-opacity:1;stroke-width:2.47937"
       d="m 184.00939,466.26519 c -0.28794,-0.46589 0.79677,-1.90828 4.2643,-5.67047 5.84876,-6.34577 9.23195,-10.98666 12.07635,-16.56577 3.42512,-6.71817 5.40155,-12.67036 7.77126,-23.40395 0.98382,-4.45622 1.76351,-7.375 1.97006,-7.375 0.0889,0 0.29972,0.30937 0.46855,0.6875 0.48171,1.07889 4.53946,5.38408 9.25259,9.81682 2.37187,2.23078 4.3125,4.2146 4.3125,4.40851 0,0.19391 -0.43833,2.28973 -0.97406,4.65737 -1.86797,8.25542 -2.13272,10.11745 -2.14057,15.0548 -0.007,4.1233 0.0409,4.61932 0.56717,5.92541 0.9,2.23365 2.43875,3.74611 5.19257,5.10381 1.29519,0.63856 2.35489,1.24431 2.35489,1.34612 0,0.1018 -0.92813,0.26208 -2.0625,0.35617 -7.53813,0.62525 -20.9749,2.403 -32.1875,4.25856 -10.16286,1.68184 -10.6525,1.74494 -10.86561,1.40012 z"
       id="path43"
       transform="scale(0.26458333)" /><path
       style="fill:#0b6666;fill-opacity:1;stroke-width:2.47937"
       d="m 333.125,465.24187 c -13.16339,-1.02757 -14.03885,-1.06 -24.25,-0.89824 -5.56875,0.0882 -11.44688,0.23143 -13.0625,0.31825 -1.66994,0.0897 -2.93065,0.0619 -2.92161,-0.0645 0.009,-0.1223 1.7097,-1.68487 3.77993,-3.47237 l 3.76404,-3.25 -0.14613,-2.25 c -0.0804,-1.2375 -0.39159,-7.21909 -0.6916,-13.29242 l -0.54547,-11.04242 0.84917,-0.97872 c 0.46704,-0.53829 2.07915,-2.3192 3.58245,-3.95758 4.71604,-5.13975 6.80941,-8.29889 8.34254,-12.58981 0.83191,-2.32838 1.29918,-3.23432 1.29918,-2.51887 0,0.82026 1.35428,8.99169 2.15534,13.00482 1.488,7.45456 4.20565,17.82859 5.73464,21.89075 2.5022,6.64772 6.49577,11.7037 13.11002,16.59767 1.71875,1.27173 3.23187,2.41333 3.3625,2.5369 0.26778,0.25332 -0.79315,0.24519 -4.3625,-0.0335 z"
       id="path44"
       transform="scale(0.26458333)" /><path
       style="fill:#37246b;fill-opacity:1;stroke-width:2.47937"
       d="m 325.9253,366.05385 c -1.14218,-1.22272 -2.34937,-4.59121 -2.48313,-6.92885 -0.10288,-1.79798 -0.0546,-2.08785 0.47812,-2.86976 1.61675,-2.37305 5.59671,-3.57847 14.95471,-4.52935 4.05544,-0.41208 11.88425,-0.44035 12.28098,-0.0443 0.24274,0.24229 -0.0821,1.08019 -1.54943,3.99705 -2.32816,4.62797 -2.35573,4.6481 -6.30941,4.60456 -1.53843,-0.0169 -3.41122,0.094 -4.16175,0.24656 -1.23423,0.25086 -1.58505,0.49025 -3.67185,2.50549 -2.81308,2.71662 -4.36573,3.52807 -7.02525,3.67159 -1.74648,0.0942 -1.83696,0.0707 -2.51299,-0.65295 z"
       id="path45"
       transform="scale(0.26458333)" /><path
       style="fill:#37246b;fill-opacity:1;stroke-width:3.50636"
       d="m 359.70724,360.76106 c -0.32284,-0.38899 -0.51486,-1.99191 -0.60355,-5.03813 -0.17295,-5.94015 0.13721,-6.85952 2.84736,-8.44031 3.25091,-1.8962 5.89404,-6.03887 8.04356,-12.60694 0.95917,-2.93086 1.21897,-2.66705 1.70941,1.73586 1.04563,9.38698 -3.00672,20.68876 -8.5602,23.87397 -2.0687,1.1865 -2.76642,1.28305 -3.43658,0.47555 z"
       id="path46"
       transform="scale(0.26458333)" /></g></svg>
