<?xml version="1.0" encoding="UTF-8" standalone="no"?>
<!-- Created with Inkscape (http://www.inkscape.org/) -->

<svg
   width="200"
   height="200"
   viewBox="0 0 52.916667 52.916667"
   version="1.1"
   id="svg1"
   sodipodi:docname="Placeholder Image.svg"
   inkscape:export-filename="Placeholder Image.png"
   inkscape:export-xdpi="4800"
   inkscape:export-ydpi="4800"
   inkscape:version="1.4 (86a8ad7, 2024-10-11)"
   xml:space="preserve"
   xmlns:inkscape="http://www.inkscape.org/namespaces/inkscape"
   xmlns:sodipodi="http://sodipodi.sourceforge.net/DTD/sodipodi-0.dtd"
   xmlns:xlink="http://www.w3.org/1999/xlink"
   xmlns="http://www.w3.org/2000/svg"
   xmlns:svg="http://www.w3.org/2000/svg"><sodipodi:namedview
     id="namedview1"
     pagecolor="#ffffff"
     bordercolor="#000000"
     borderopacity="0.25"
     inkscape:showpageshadow="2"
     inkscape:pageopacity="0.0"
     inkscape:pagecheckerboard="0"
     inkscape:deskcolor="#d1d1d1"
     inkscape:document-units="px"
     inkscape:lockguides="false"
     showgrid="true"
     showguides="true"
     inkscape:zoom="2.8284271"
     inkscape:cx="110.48543"
     inkscape:cy="98.464619"
     inkscape:window-width="1920"
     inkscape:window-height="1017"
     inkscape:window-x="1912"
     inkscape:window-y="-8"
     inkscape:window-maximized="1"
     inkscape:current-layer="svg1"><inkscape:grid
       id="grid6"
       units="px"
       originx="0"
       originy="0"
       spacingx="0.26458332"
       spacingy="0.26458332"
       empcolor="#0099e5"
       empopacity="0.30196078"
       color="#0099e5"
       opacity="0.14901961"
       empspacing="5"
       enabled="false"
       visible="true" /></sodipodi:namedview><defs
     id="defs1"><linearGradient
       id="linearGradient6"><stop
         style="stop-color:#000000;stop-opacity:1;"
         offset="0"
         id="stop6" /></linearGradient><linearGradient
       id="swatch5"><stop
         style="stop-color:#000000;stop-opacity:1;"
         offset="0"
         id="stop5" /></linearGradient><rect
       x="199.7121"
       y="234.1452"
       width="330.98729"
       height="140.40422"
       id="rect2" /><linearGradient
       xlink:href="#swatch5"
       id="linearGradient5"
       x1="25.065264"
       y1="97.88588"
       x2="175.29622"
       y2="97.88588"
       gradientUnits="userSpaceOnUse" /><linearGradient
       xlink:href="#linearGradient6"
       id="linearGradient3"
       gradientUnits="userSpaceOnUse"
       x1="265.22592"
       y1="300.73282"
       x2="265.4306"
       y2="301.92606" /><pattern
       patternUnits="userSpaceOnUse"
       width="180"
       height="70.04774"
       patternTransform="translate(9.9999977,65.000001)"
       preserveAspectRatio="xMidYMid"
       id="pattern6"
       inkscape:label="text1"><text
         xml:space="preserve"
         transform="matrix(0.59622225,0,0,0.59260516,-129.35874,-144.39314)"
         id="text1"
         style="font-style:normal;font-variant:normal;font-weight:normal;font-stretch:normal;font-size:53.3333px;font-family:sans-serif;-inkscape-font-specification:'sans-serif, Normal';font-variant-ligatures:normal;font-variant-caps:normal;font-variant-numeric:normal;font-variant-east-asian:normal;text-align:center;writing-mode:lr-tb;direction:ltr;white-space:pre;shape-inside:url(#rect2);shape-padding:1.37732;display:inline;fill-opacity:1"
         x="150.95042"
         y="0"
         inkscape:label="text1"><tspan
           x="211.75563"
           y="284.17907"
           id="tspan3">Placeholder
</tspan><tspan
           x="279.52902"
           y="350.8457"
           id="tspan4">Image</tspan></text></pattern></defs><rect
     style="fill:#e6e6e6;fill-opacity:1;stroke-width:0.321935"
     id="rect5"
     width="52.916668"
     height="52.916668"
     x="0"
     y="0" /><path
     style="fill:#020202;stroke:none"
     d="m 7.8792919,17.293167 v 6.344709 h 0.762 v -6.344709 h -0.762 m 16.6581671,0 v 6.344709 h 0.756708 v -2.44475 -0.677334 -0.185208 c 0,-0.02531 -0.0064,-0.06144 0.0054,-0.08459 0.02086,-0.04068 0.08483,-0.07187 0.121561,-0.09713 0.107472,-0.07392 0.217734,-0.145265 0.333375,-0.205923 0.100431,-0.05268 0.2012,-0.104203 0.306917,-0.145741 0.43563,-0.17116 1.133458,-0.206736 1.379164,0.284675 0.06577,0.131538 0.0905,0.279092 0.109285,0.423334 0.03593,0.275854 0.03026,0.552912 0.03026,0.830792 v 2.301875 h 0.762 v -2.227792 c 0,-0.473222 0.03793,-0.961693 -0.08405,-1.423459 -0.04228,-0.160072 -0.111686,-0.317303 -0.203574,-0.455083 -0.328231,-0.492166 -0.955461,-0.634364 -1.511538,-0.548088 -0.322058,0.04997 -0.619492,0.18248 -0.894292,0.354542 -0.08022,0.05023 -0.157409,0.105373 -0.232833,0.162481 -0.03874,0.02933 -0.07687,0.0703 -0.121709,0.08927 v -2.296583 h -0.756708 m 10.376959,0 v 6.344709 h 0.762 v -6.344709 h -0.762 m 5.222875,0 v 1.338792 0.423333 l -0.0053,0.216958 c -0.296561,-0.173074 -0.662239,-0.286669 -1.005417,-0.301834 -0.27735,-0.01225 -0.536613,0.0017 -0.804333,0.08501 -0.147027,0.04574 -0.288086,0.115446 -0.418042,0.197345 -0.839538,0.529084 -1.089897,1.592629 -1.001024,2.522438 0.06565,0.686847 0.294925,1.403829 0.921649,1.779057 0.107668,0.06446 0.22379,0.112781 0.343959,0.148588 0.172912,0.05152 0.354895,0.06818 0.534458,0.06731 0.373714,-0.0018 0.732544,-0.129734 1.04775,-0.325032 0.0879,-0.05446 0.171811,-0.114347 0.254,-0.177059 0.04251,-0.03244 0.08372,-0.07891 0.132292,-0.101154 v 0.470959 h 0.762 v -6.344709 h -0.762 M 2.8839584,17.568334 v 6.069542 h 0.8043334 v -1.651 -0.439209 c 0,-0.03951 -0.016769,-0.129077 0.00544,-0.162359 0.011491,-0.01722 0.040385,-0.01226 0.058061,-0.01227 h 0.1534583 0.650875 c 0.6183341,0 1.2336457,-0.136322 1.7039167,-0.561816 C 6.6977586,20.415186 6.8929451,19.831638 6.853182,19.251084 6.8370486,19.015532 6.7987984,18.782058 6.6919987,18.568459 6.5238177,18.232097 6.2299597,17.964356 5.8896251,17.808092 5.3856898,17.576711 4.834955,17.568334 4.2915418,17.568334 H 2.8839584 m 0.8043334,0.687916 c 0.4243268,0 0.8595063,-0.02741 1.2805833,0.02795 0.2849855,0.03747 0.5871974,0.137431 0.7879849,0.35305 0.3871605,0.415763 0.3497183,1.166539 0.00333,1.592792 -0.3016327,0.371179 -0.7920011,0.460375 -1.2464,0.460375 -0.2042192,0 -0.4091941,0.0053 -0.6138334,0.0053 H 3.7465001 c -0.014833,0 -0.042202,0.0049 -0.05277,-0.0085 -0.02315,-0.02923 -0.00544,-0.129235 -0.00544,-0.16614 V 20.055417 18.25625 m 19.5844592,4.280959 c -0.06513,2.38e-4 -0.116353,0.06434 -0.169334,0.09824 -0.114324,0.07315 -0.235394,0.136424 -0.359833,0.190557 -0.399805,0.173922 -0.826058,0.285812 -1.264708,0.255773 -0.234427,-0.01605 -0.470433,-0.06681 -0.682626,-0.170233 -0.341656,-0.166519 -0.59873,-0.48282 -0.707601,-0.845294 -0.04568,-0.152097 -0.08003,-0.31687 -0.08086,-0.47625 -1.68e-4,-0.03232 -0.02488,-0.12676 0.007,-0.14802 0.01772,-0.01183 0.05207,-0.0054 0.0724,-0.0054 h 0.169333 0.650876 2.455333 c 0,-0.67809 0.0019,-1.400547 -0.492598,-1.931458 -0.347516,-0.373096 -0.834437,-0.527614 -1.333027,-0.539828 -0.639093,-0.01565 -1.257104,0.171811 -1.703444,0.650953 -0.415137,0.445647 -0.589029,1.064366 -0.603645,1.661583 -0.01786,0.729749 0.167073,1.495532 0.761922,1.971415 0.137276,0.109823 0.289272,0.201504 0.449792,0.272986 0.68837,0.306539 1.486519,0.277794 2.196042,0.0703 0.159375,-0.04661 0.316159,-0.10203 0.470958,-0.161995 0.03929,-0.01522 0.13485,-0.0341 0.158603,-0.07 0.01108,-0.01675 0.0054,-0.04744 0.0054,-0.06658 v -0.15875 -0.597958 m 8.276166,-3.574922 c -0.163222,0.02143 -0.324156,0.02227 -0.486833,0.05821 -0.377406,0.08337 -0.719305,0.288445 -0.978059,0.574546 -0.202877,0.224317 -0.341519,0.492691 -0.436581,0.777875 -0.08762,0.262873 -0.123969,0.539481 -0.136028,0.814917 -0.0316,0.721821 0.112919,1.506727 0.651085,2.031922 0.473847,0.46243 1.146069,0.612224 1.788583,0.527754 0.197461,-0.02596 0.38964,-0.08083 0.5715,-0.161817 0.122411,-0.05451 0.236986,-0.126179 0.343958,-0.20644 0.764786,-0.573807 0.92843,-1.62188 0.811116,-2.514211 -0.02545,-0.193559 -0.07085,-0.381478 -0.133798,-0.566208 -0.238936,-0.701229 -0.843357,-1.211004 -1.576901,-1.313023 -0.132351,-0.01841 -0.284869,-0.04101 -0.418042,-0.02352 m 14.589126,3.574922 c -0.06498,2.35e-4 -0.122003,0.06548 -0.174625,0.100542 -0.111084,0.07402 -0.232244,0.135053 -0.354542,0.188254 -0.399877,0.173953 -0.825975,0.285817 -1.264708,0.255773 -0.234425,-0.01605 -0.470432,-0.06681 -0.682625,-0.170233 -0.341507,-0.166447 -0.588822,-0.476692 -0.705539,-0.834711 -0.05051,-0.154936 -0.06552,-0.310612 -0.08443,-0.470958 -0.0038,-0.03195 -0.02172,-0.143741 0.0085,-0.163895 0.01773,-0.01183 0.05206,-0.0054 0.0724,-0.0054 h 0.169334 0.650875 2.455333 c 0,-0.678491 0.0023,-1.400204 -0.4926,-1.931458 -0.347173,-0.372711 -0.834942,-0.527627 -1.333025,-0.539828 -0.639067,-0.01565 -1.257076,0.171768 -1.703444,0.650953 -0.415135,0.445652 -0.58901,1.064129 -0.603645,1.661583 -0.01787,0.729718 0.166718,1.495974 0.761922,1.971415 0.137369,0.109727 0.289295,0.201515 0.449792,0.272986 0.688346,0.306529 1.486524,0.277794 2.196042,0.0703 0.157417,-0.04604 0.313019,-0.09995 0.465666,-0.159921 0.04049,-0.01591 0.139382,-0.03503 0.163892,-0.07208 0.01109,-0.01676 0.0054,-0.04744 0.0054,-0.06658 v -0.15875 -0.597958 M 10.239375,19.960167 c 0.0822,-2.3e-4 0.166326,-0.0478 0.243417,-0.07407 0.144348,-0.04919 0.291286,-0.09075 0.439208,-0.127684 0.417258,-0.104196 0.838224,-0.13885 1.264709,-0.0794 0.296059,0.04127 0.576046,0.178826 0.699173,0.466356 0.06682,0.156037 0.06283,0.326089 0.06283,0.492125 -0.263312,0 -0.531686,0.02697 -0.79375,0.05202 -0.673024,0.06433 -1.469463,0.114223 -1.968292,0.635899 -0.4234765,0.44287 -0.4642202,1.23547 -0.152589,1.751542 0.197556,0.327161 0.533374,0.563705 0.903797,0.651487 0.500018,0.118494 1.067205,10e-4 1.513417,-0.24037 0.174895,-0.09461 0.320657,-0.243812 0.497417,-0.331742 v 0.481542 h 0.756708 v -2.667 c 0,-0.493611 0.03418,-1.020669 -0.297713,-1.428751 -0.376648,-0.463103 -1.029439,-0.560916 -1.591412,-0.560916 -0.112908,0 -0.225551,-0.0029 -0.338667,0.0048 -0.168243,0.01152 -0.335846,0.02322 -0.502708,0.0512 -0.180694,0.0303 -0.360143,0.06442 -0.53975,0.100616 -0.04617,0.0093 -0.0919,0.02046 -0.137583,0.03189 -0.01602,0.004 -0.0424,0.006 -0.05277,0.02057 -0.01064,0.015 -0.0054,0.04342 -0.0054,0.06078 v 0.148166 0.560917 m 8.3185,2.561167 c -0.07072,2.56e-4 -0.134215,0.0722 -0.1905,0.110991 -0.124718,0.08596 -0.25612,0.163884 -0.391583,0.23166 -0.409444,0.204856 -0.909056,0.290248 -1.354667,0.163088 -0.102227,-0.02917 -0.199494,-0.0709 -0.291041,-0.124796 -0.610516,-0.359389 -0.723877,-1.171202 -0.662357,-1.814985 0.02454,-0.256837 0.07322,-0.514508 0.192767,-0.746125 0.123192,-0.238683 0.316365,-0.4344 0.554256,-0.559222 0.496958,-0.260754 1.11435,-0.139058 1.592792,0.100162 0.130625,0.06531 0.255474,0.141728 0.375708,0.224423 0.0511,0.03514 0.110314,0.101586 0.174625,0.102345 V 19.58975 19.425709 c 0,-0.01856 0.0058,-0.04937 -0.0054,-0.06542 -0.02482,-0.03555 -0.108977,-0.05823 -0.14802,-0.07521 -0.135225,-0.05883 -0.272917,-0.109104 -0.41275,-0.155704 -0.658324,-0.219387 -1.423556,-0.211511 -2.042583,0.123342 -0.125053,0.06764 -0.243013,0.15251 -0.34925,0.246809 -0.553703,0.491474 -0.736692,1.20541 -0.735542,1.921141 0.0013,0.79668 0.293689,1.646032 1.031875,2.046242 0.62975,0.341421 1.410932,0.351532 2.079625,0.128633 0.145354,-0.04845 0.288936,-0.104743 0.428625,-0.167716 0.03914,-0.01764 0.122913,-0.03782 0.14802,-0.07378 0.0112,-0.01605 0.0054,-0.04686 0.0054,-0.06542 v -0.15875 -0.608542 m 28.844876,-3.434292 v 4.550834 h 0.762 v -2.386542 -0.624417 -0.15875 c 0,-0.02109 -0.0048,-0.04918 0.0085,-0.06721 0.02612,-0.03548 0.0776,-0.0645 0.113223,-0.09001 0.07635,-0.05469 0.152968,-0.107782 0.232834,-0.157239 0.35495,-0.219805 0.733862,-0.338232 1.153583,-0.30949 0.118386,0.0081 0.237257,0.0192 0.354542,0.03887 0.07247,0.01215 0.143216,0.03474 0.216958,0.03474 v -0.783167 c -0.235536,-0.01012 -0.460251,-0.06411 -0.6985,-0.04143 -0.54099,0.05149 -0.957776,0.352007 -1.381125,0.665851 v -0.672042 h -0.762 M 22.621876,20.859751 H 20.0025 c 0.02152,-0.501479 0.347765,-0.985519 0.814917,-1.172373 0.223059,-0.08922 0.461237,-0.108224 0.6985,-0.09784 0.279097,0.01222 0.561891,0.09271 0.767271,0.29146 0.26086,0.252437 0.338688,0.629779 0.338688,0.97875 m 22.865292,0 h -2.619375 c 8.2e-5,-0.120128 0.03279,-0.246538 0.07056,-0.359834 0.03725,-0.111745 0.08675,-0.218974 0.151709,-0.3175 0.288727,-0.437952 0.773855,-0.628202 1.28586,-0.593139 0.282644,0.01936 0.55441,0.08746 0.767286,0.286695 0.266237,0.249179 0.343964,0.634577 0.343964,0.983778 M 31.485417,19.61772 c 0.126882,-0.01497 0.266245,-0.0026 0.391584,0.01835 0.103079,0.01721 0.200967,0.04984 0.296333,0.092 0.696844,0.3081 0.792189,1.207554 0.746598,1.872511 -0.01075,0.156838 -0.02817,0.312224 -0.06459,0.465667 -0.124254,0.523606 -0.484299,0.975116 -1.047138,1.036288 -0.37044,0.04026 -0.761354,-0.0288 -1.042458,-0.290636 -0.360929,-0.336181 -0.465354,-0.864911 -0.470979,-1.338319 -0.0066,-0.556509 0.04117,-1.230832 0.518604,-1.603985 0.07375,-0.05764 0.152931,-0.106919 0.238125,-0.145924 0.138193,-0.06327 0.284432,-0.08832 0.433916,-0.105955 m 7.508876,0.03704 c 0.08434,-0.0099 0.175038,0.0028 0.259291,0.0086 0.213274,0.01469 0.424067,0.0579 0.624417,0.133783 0.06193,0.02345 0.124512,0.04571 0.185208,0.07233 0.0198,0.0087 0.05579,0.01754 0.06864,0.03586 0.01254,0.01788 0.0054,0.05517 0.0054,0.076 v 0.195791 0.735542 1.164167 0.3175 c 0,0.03564 0.01228,0.09972 -0.0054,0.131372 -0.01424,0.02543 -0.05084,0.04462 -0.07394,0.06137 -0.05863,0.04252 -0.118425,0.0834 -0.179917,0.121708 -0.256455,0.159742 -0.543039,0.292334 -0.846667,0.324962 -0.141598,0.01522 -0.282306,0.01522 -0.423333,-0.0067 -0.0943,-0.01463 -0.188185,-0.03894 -0.275167,-0.07876 -0.499551,-0.228717 -0.617417,-0.815219 -0.651348,-1.3107 -0.04497,-0.656643 0.06092,-1.481277 0.704265,-1.829284 0.195856,-0.105945 0.39264,-0.128111 0.608542,-0.15358 m -26.045584,1.59128 v 0.92075 0.254 c 0,0.02994 0.0091,0.07837 -0.0054,0.105356 -0.01916,0.03552 -0.07829,0.06447 -0.110978,0.08695 -0.09634,0.06627 -0.194504,0.128126 -0.296333,0.18565 -0.342731,0.193608 -0.692965,0.274443 -1.084792,0.257256 -0.219989,-0.0097 -0.450588,-0.06379 -0.619104,-0.213391 -0.265664,-0.235843 -0.278618,-0.742396 -0.08808,-1.025069 0.100633,-0.149298 0.273363,-0.259795 0.437314,-0.328021 0.219457,-0.09133 0.458726,-0.128129 0.693208,-0.157306 0.353131,-0.04394 0.71869,-0.07882 1.074209,-0.08617 m 0.312208,6.778625 v 0.608542 h 0.597958 0.142875 l 0.05277,0.01226 0.0054,0.07769 v 0.1905 0.73025 2.735792 0.79375 0.211667 l -0.0054,0.08298 -0.05277,0.01227 h -0.142875 -0.597958 v 0.613833 h 2.397125 V 33.480376 H 14.859 v -3.624792 -0.904875 -0.227542 l 0.0085,-0.08147 0.05501,-0.0085 h 0.148167 0.587375 v -0.608542 h -2.397125 m 4.482042,2.021417 v -0.508 h -0.762 v 4.556125 h 0.762 v -2.460625 -0.677333 -0.185209 c 0,-0.02351 -0.0061,-0.05755 0.0054,-0.0789 0.01885,-0.03495 0.07404,-0.06172 0.105686,-0.0844 0.09261,-0.06636 0.188014,-0.128488 0.28575,-0.187009 0.335119,-0.200655 0.691224,-0.321428 1.084791,-0.270309 0.243739,0.03166 0.467502,0.136955 0.575159,0.371907 0.07188,0.156869 0.0867,0.328197 0.103073,0.497417 0.0245,0.253163 0.02027,0.507488 0.02027,0.762 v 2.312458 h 0.762 v -2.471208 c 0,-0.216915 0.004,-0.43441 -0.0055,-0.650875 -0.0025,-0.0579 -0.0071,-0.117071 -0.01416,-0.174625 -0.003,-0.02425 -0.01349,-0.06163 -0.0014,-0.08419 0.01972,-0.03667 0.07776,-0.06589 0.110978,-0.08969 0.09442,-0.06765 0.191442,-0.131483 0.291042,-0.191244 0.334205,-0.200528 0.671659,-0.317702 1.063625,-0.286202 0.259591,0.02086 0.503744,0.133185 0.617492,0.381452 0.07127,0.155561 0.08683,0.32429 0.103073,0.492125 0.02451,0.25325 0.02027,0.507411 0.02027,0.762 v 2.312458 h 0.762 v -2.25425 c 0,-0.469858 0.04027,-0.960649 -0.08691,-1.418167 -0.07145,-0.257012 -0.199704,-0.511465 -0.399921,-0.692309 -0.426574,-0.385297 -1.125118,-0.384348 -1.640417,-0.205452 -0.261639,0.09083 -0.503141,0.24154 -0.724959,0.405024 -0.09609,0.07082 -0.184902,0.159791 -0.28575,0.222862 -0.294457,-0.707269 -1.203329,-0.876561 -1.862666,-0.641919 -0.335562,0.119419 -0.606477,0.326657 -0.889,0.536086 m 15.329958,3.429 c 0,0.258442 0.01659,0.522356 -0.02778,0.777875 -0.0205,0.118029 -0.05257,0.237435 -0.108642,0.343958 -0.29517,0.56077 -1.02626,0.586668 -1.578077,0.514783 -0.108381,-0.01412 -0.216397,-0.03387 -0.322791,-0.05909 -0.165512,-0.03923 -0.328952,-0.08737 -0.492125,-0.135149 -0.07746,-0.02268 -0.156802,-0.06649 -0.238125,-0.06655 v 0.777875 c 0.159533,0.03293 0.315515,0.07989 0.47625,0.108879 0.362668,0.06541 0.732823,0.09751 1.100666,0.08141 0.241079,-0.01055 0.488991,-0.04433 0.719667,-0.118032 0.169039,-0.05401 0.328642,-0.126834 0.47625,-0.225725 0.08274,-0.05543 0.157254,-0.120179 0.227542,-0.190495 0.61312,-0.613371 0.529166,-1.593489 0.529166,-2.386542 v -3.360208 h -0.714375 l -0.04763,0.195792 c -0.140986,-0.06075 -0.272911,-0.137188 -0.418041,-0.190219 -0.258822,-0.09457 -0.539779,-0.137593 -0.814917,-0.132286 -0.206145,0.004 -0.420075,0.03643 -0.613833,0.10982 -0.19365,0.07334 -0.379437,0.159848 -0.545042,0.286156 -0.751241,0.572967 -0.932579,1.563039 -0.826322,2.450654 0.08165,0.682095 0.407854,1.410834 1.101489,1.657919 0.134932,0.04807 0.275148,0.08418 0.418041,0.09801 0.233648,0.02263 0.478271,0.01743 0.709084,-0.02874 0.38325,-0.07665 0.678287,-0.286378 0.989541,-0.510114 m 6.006042,-0.486833 c -0.05194,1.83e-4 -0.08175,0.0347 -0.121708,0.06411 -0.05664,0.04169 -0.117825,0.0787 -0.179917,0.111676 -0.228154,0.121189 -0.469242,0.224645 -0.719666,0.290491 -0.650227,0.170969 -1.472949,0.106218 -1.917372,-0.460988 -0.103911,-0.132619 -0.181619,-0.280737 -0.237965,-0.439208 -0.07457,-0.209721 -0.09891,-0.440335 -0.09891,-0.661458 h 3.360208 c 0,-0.223343 0.0095,-0.449373 -0.0058,-0.672042 -0.03299,-0.481772 -0.185626,-0.969225 -0.534006,-1.317604 -0.312516,-0.312516 -0.742624,-0.452267 -1.174729,-0.482035 -0.664918,-0.04581 -1.322997,0.13796 -1.793666,0.630181 -0.427534,0.447109 -0.609681,1.070565 -0.624548,1.677458 -0.01829,0.746652 0.178025,1.527085 0.798964,2.000863 0.122538,0.09349 0.255899,0.175464 0.396875,0.238246 0.694451,0.309278 1.51636,0.293868 2.233083,0.07348 0.151751,-0.04666 0.301077,-0.09823 0.449792,-0.153854 0.04065,-0.01521 0.138594,-0.03585 0.163894,-0.0719 0.01122,-0.01599 0.0054,-0.04689 0.0054,-0.06541 v -0.15875 -0.60325 M 25.193626,29.633334 v 0.777875 c 0.07339,-2.14e-4 0.14791,-0.04225 0.216958,-0.06527 0.1395,-0.0465 0.280151,-0.09186 0.423333,-0.125847 0.427641,-0.101498 0.843561,-0.142501 1.280584,-0.09017 0.303501,0.03634 0.594044,0.171535 0.720338,0.466488 0.0671,0.156704 0.06283,0.325464 0.06283,0.492125 -0.259617,3.7e-5 -0.524756,0.02732 -0.783166,0.05202 -0.642039,0.06137 -1.404938,0.101947 -1.905,0.56758 -0.458944,0.427346 -0.553964,1.192341 -0.268509,1.745777 0.180028,0.349036 0.519431,0.615389 0.898217,0.714988 0.500287,0.131545 1.081952,0.02771 1.534583,-0.211119 0.117525,-0.06201 0.225488,-0.137927 0.333375,-0.215057 0.06104,-0.04364 0.122561,-0.09793 0.1905,-0.130062 v 0.481542 h 0.756709 v -2.778125 c 0,-0.446528 0.01074,-0.894878 -0.262359,-1.275292 -0.05083,-0.07081 -0.111296,-0.136774 -0.17685,-0.194277 -0.251977,-0.221033 -0.578324,-0.326314 -0.904875,-0.373365 -0.498251,-0.07179 -1.013023,-0.05384 -1.508125,0.03543 -0.202184,0.03645 -0.405729,0.09746 -0.608541,0.124755 m 13.234458,1.677458 h -2.624666 c 0.03109,-0.393955 0.220632,-0.777593 0.53975,-1.016555 0.283251,-0.212103 0.649358,-0.272312 0.994833,-0.248626 0.316983,0.02173 0.62306,0.119099 0.828414,0.376181 0.198637,0.248673 0.261669,0.57812 0.261669,0.889 m -6.57225,-1.21028 c 0.304609,-0.03593 0.645046,0.0385 0.931333,0.137894 0.06794,0.02359 0.134628,0.05018 0.201084,0.07761 0.0228,0.0094 0.06453,0.01932 0.07923,0.04036 0.01252,0.01793 0.0054,0.05514 0.0054,0.076 v 0.185208 0.709083 1.100667 0.301625 c 0,0.0325 0.01129,0.09144 -0.0054,0.120119 -0.01435,0.02459 -0.05096,0.0438 -0.07394,0.05966 -0.05854,0.04042 -0.118085,0.07984 -0.179916,0.115066 -0.255917,0.145813 -0.536234,0.254803 -0.830792,0.286357 -0.311368,0.03335 -0.671334,0.0053 -0.926042,-0.197295 -0.321404,-0.255685 -0.407833,-0.705671 -0.434389,-1.092993 -0.04532,-0.660983 0.06375,-1.46743 0.730723,-1.792503 0.159943,-0.07795 0.328124,-0.106268 0.502708,-0.126861 m -3.958167,1.601864 v 0.904875 0.259291 c 0,0.03133 0.0093,0.08048 -0.0032,0.109536 -0.01754,0.04078 -0.09366,0.07585 -0.129098,0.100648 -0.12267,0.08582 -0.25238,0.163375 -0.386292,0.230332 -0.311038,0.155518 -0.636703,0.224178 -0.98425,0.200249 -0.18797,-0.01294 -0.380868,-0.04778 -0.53975,-0.155753 -0.321663,-0.218599 -0.369719,-0.759003 -0.165654,-1.072387 0.103038,-0.158233 0.279947,-0.26787 0.451404,-0.338609 0.220175,-0.09084 0.463145,-0.127357 0.6985,-0.153782 0.348245,-0.0391 0.708016,-0.0815 1.058333,-0.0844 z"
     id="path5" /></svg>
